<svg width="32" height="32" viewBox="0 0 32 32" fill="none" xmlns="http://www.w3.org/2000/svg">
<path d="M28.5729 26.669H19.6888V17.8301H28.5729C28.9354 17.8301 29.2701 18.0243 29.4499 18.3391L31.3981 21.7484C31.4853 21.901 31.5312 22.0738 31.5312 22.2496C31.5312 22.4254 31.4853 22.5981 31.3981 22.7508L29.4499 26.16C29.3616 26.3146 29.2339 26.4431 29.0799 26.5325C28.9259 26.6219 28.751 26.669 28.5729 26.669Z" fill="#A2E62E"/>
<path d="M31.398 21.7484L29.4499 18.3391C29.3616 18.1845 29.2339 18.0559 29.0799 17.9666C28.9259 17.8772 28.7509 17.8301 28.5729 17.8301H26.8051C27.1676 17.8301 27.5022 18.0243 27.6821 18.3391L29.6303 21.7484C29.7175 21.901 29.7634 22.0738 29.7634 22.2496C29.7634 22.4254 29.7175 22.5981 29.6303 22.7508L27.6821 26.1601C27.5938 26.3147 27.4661 26.4432 27.3121 26.5326C27.1581 26.622 26.9831 26.6691 26.8051 26.6691H28.5729C28.9354 26.6691 29.2701 26.4748 29.4499 26.1601L31.3981 22.7508C31.4853 22.5981 31.5312 22.4254 31.5312 22.2496C31.5312 22.0738 31.4853 21.901 31.398 21.7484Z" fill="#97D729"/>
<path d="M19.6888 26.669H10.2185V17.8301H19.6887L21.9277 21.7484C22.0149 21.901 22.0608 22.0738 22.0608 22.2496C22.0608 22.4254 22.0149 22.5981 21.9277 22.7508L19.6888 26.669Z" fill="#FFE177"/>
<path d="M21.9278 21.7483L19.6888 17.8301H17.921L20.16 21.7483C20.2472 21.901 20.2931 22.0737 20.2931 22.2495C20.2931 22.4253 20.2472 22.5981 20.16 22.7507L17.921 26.669H19.6888L21.9278 22.7507C22.015 22.5981 22.0609 22.4253 22.0609 22.2495C22.0609 22.0737 22.015 21.901 21.9278 21.7483Z" fill="#FFD15B"/>
<path d="M10.2185 26.669H0.46875V17.8301H10.2185L12.4575 21.7484C12.5447 21.901 12.5906 22.0738 12.5906 22.2496C12.5906 22.4254 12.5447 22.5981 12.4575 22.7508L10.2185 26.669Z" fill="#FD8087"/>
<path d="M12.4576 21.7483L10.2186 17.8301H8.45081L10.6898 21.7483C10.777 21.901 10.8229 22.0737 10.8229 22.2495C10.8229 22.4253 10.777 22.5981 10.6898 22.7507L8.45081 26.669H10.2186L12.4576 22.7507C12.5448 22.5981 12.5907 22.4253 12.5907 22.2495C12.5907 22.0737 12.5448 21.901 12.4576 21.7483Z" fill="#FE646F"/>
<path d="M31.1519 10.0021H24.8424V5.33008H31.1519C31.4388 5.33008 31.6216 5.63664 31.4851 5.88901L30.6544 7.42589C30.6145 7.49967 30.5936 7.58221 30.5936 7.66607C30.5936 7.74994 30.6145 7.83248 30.6544 7.90626L31.4851 9.44313C31.6215 9.69551 31.4388 10.0021 31.1519 10.0021Z" fill="#FD8087"/>
<path d="M30.6543 7.90626C30.6144 7.83248 30.5935 7.74994 30.5935 7.66607C30.5935 7.58221 30.6144 7.49967 30.6543 7.42589L31.485 5.88901C31.6215 5.63664 31.4386 5.33008 31.1518 5.33008H29.5103C29.7971 5.33008 29.98 5.63664 29.8435 5.88901L29.0128 7.42589C28.9729 7.49967 28.952 7.58221 28.952 7.66607C28.952 7.74994 28.9729 7.83248 29.0128 7.90626L29.8435 9.44313C29.98 9.69551 29.7971 10.0021 29.5103 10.0021H31.1518C31.4386 10.0021 31.6215 9.69551 31.485 9.44313L30.6543 7.90626Z" fill="#FE646F"/>
<path d="M15.9999 12.1495C16.9413 12.1495 17.7045 11.3863 17.7045 10.4449C17.7045 9.50342 16.9413 8.74023 15.9999 8.74023C15.0585 8.74023 14.2953 9.50342 14.2953 10.4449C14.2953 11.3863 15.0585 12.1495 15.9999 12.1495Z" fill="#7A6D79"/>
<path d="M16.7373 8.90625C16.8478 9.13634 16.905 9.38838 16.9046 9.64362C16.9046 10.5851 16.1415 11.3482 15.2 11.3482C14.9448 11.3486 14.6927 11.2914 14.4626 11.1809C14.7376 11.7531 15.3226 12.1482 16 12.1482C16.9414 12.1482 17.7046 11.385 17.7046 10.4436C17.7046 9.76625 17.3096 9.18125 16.7373 8.90625Z" fill="#685E68"/>
<path d="M5.52982 13.5381C6.47125 13.5381 7.23444 12.775 7.23444 11.8335C7.23444 10.8921 6.47125 10.1289 5.52982 10.1289C4.58838 10.1289 3.8252 10.8921 3.8252 11.8335C3.8252 12.775 4.58838 13.5381 5.52982 13.5381Z" fill="#7A6D79"/>
<path d="M6.26724 10.2949C6.37774 10.525 6.43493 10.7771 6.43455 11.0323C6.43455 11.9737 5.67136 12.7369 4.72993 12.7369C4.47468 12.7373 4.22263 12.6801 3.99255 12.5695C4.26749 13.1418 4.85255 13.5369 5.52986 13.5369C6.4713 13.5369 7.23448 12.7737 7.23448 11.8322C7.23448 11.1549 6.83942 10.5699 6.26724 10.2949Z" fill="#685E68"/>
<path d="M10.2185 26.669L12.4575 22.7507C12.5447 22.5981 12.5906 22.4253 12.5906 22.2495C12.5906 22.0737 12.5447 21.901 12.4575 21.7483L10.2185 17.8301M19.6888 26.669L21.9278 22.7507C22.015 22.5981 22.0609 22.4253 22.0609 22.2495C22.0609 22.0737 22.015 21.901 21.9278 21.7483L19.6888 17.8301" stroke="black" stroke-width="0.937498" stroke-miterlimit="10" stroke-linecap="round" stroke-linejoin="round"/>
<path d="M12.425 17.8307H0.46875V26.67H23.7487M14.6125 17.8307H28.5731C28.9356 17.8307 29.2699 18.0251 29.4499 18.3401L31.3981 21.7494C31.4853 21.9021 31.5312 22.0749 31.5312 22.2507C31.5312 22.4265 31.4853 22.5993 31.3981 22.7519L29.4499 26.1607C29.3617 26.3153 29.2341 26.4439 29.0801 26.5334C28.9261 26.6229 28.7512 26.67 28.5731 26.67H25.9362M29.4556 10.0019H31.1518C31.4387 10.0019 31.6218 9.69569 31.4849 9.44319L30.6543 7.90632C30.6143 7.83265 30.5934 7.75015 30.5934 7.66632C30.5934 7.5825 30.6143 7.5 30.6543 7.42632L31.4849 5.88945C31.6218 5.63695 31.4387 5.33008 31.1518 5.33008H24.8425V10.0019H27.2681M24.8424 5.33027V17.831M16 12.1488V17.831M5.5298 13.5378V17.831" stroke="black" stroke-width="0.937498" stroke-miterlimit="10" stroke-linecap="round" stroke-linejoin="round"/>
<path d="M15.9999 12.1495C16.9413 12.1495 17.7045 11.3863 17.7045 10.4449C17.7045 9.50342 16.9413 8.74023 15.9999 8.74023C15.0585 8.74023 14.2953 9.50342 14.2953 10.4449C14.2953 11.3863 15.0585 12.1495 15.9999 12.1495Z" stroke="black" stroke-width="0.937498" stroke-miterlimit="10" stroke-linecap="round" stroke-linejoin="round"/>
<path d="M5.52982 13.5381C6.47125 13.5381 7.23444 12.775 7.23444 11.8335C7.23444 10.8921 6.47125 10.1289 5.52982 10.1289C4.58838 10.1289 3.8252 10.8921 3.8252 11.8335C3.8252 12.775 4.58838 13.5381 5.52982 13.5381Z" stroke="black" stroke-width="0.937498" stroke-miterlimit="10" stroke-linecap="round" stroke-linejoin="round"/>
</svg>
