<svg width="32" height="32" viewBox="0 0 32 32" fill="none" xmlns="http://www.w3.org/2000/svg">
<path d="M12.0663 13.1214L13.8211 14.6236H23.6375V11.6191H13.8211L12.0663 13.1214ZM14.4071 12.6358H19.011C19.0748 12.6357 19.138 12.6482 19.1969 12.6726C19.2559 12.6969 19.3094 12.7327 19.3545 12.7778C19.3997 12.8229 19.4354 12.8765 19.4598 12.9355C19.4842 12.9944 19.4967 13.0576 19.4966 13.1214C19.4967 13.1852 19.4842 13.2484 19.4598 13.3073C19.4354 13.3663 19.3997 13.4199 19.3545 13.465C19.3094 13.5101 19.2559 13.5458 19.1969 13.5702C19.138 13.5946 19.0748 13.6071 19.011 13.607H14.4071C14.1383 13.607 13.9215 13.3901 13.9215 13.1214C13.9215 12.8527 14.1383 12.6358 14.4071 12.6358ZM12.0663 18.6059L13.8211 20.1081H23.6375V17.1036H13.8211L12.0663 18.6059ZM14.4071 18.1203H19.011C19.2797 18.1203 19.4966 18.3372 19.4966 18.6059C19.4966 18.8746 19.2797 19.0915 19.011 19.0915H14.4071C14.1383 19.0915 13.9215 18.8746 13.9215 18.6059C13.9215 18.3372 14.1383 18.1203 14.4071 18.1203ZM12.0663 24.0904L13.8211 25.5926H23.6375V22.5881H13.8211L12.0663 24.0904ZM14.4071 23.6048H19.011C19.0748 23.6047 19.138 23.6172 19.1969 23.6416C19.2559 23.6659 19.3094 23.7017 19.3545 23.7468C19.3997 23.7919 19.4354 23.8455 19.4598 23.9045C19.4842 23.9634 19.4967 24.0266 19.4966 24.0904C19.4966 24.3559 19.2797 24.576 19.011 24.576H14.4071C14.1383 24.576 13.9215 24.3559 13.9215 24.0904C13.9215 23.8216 14.1383 23.6048 14.4071 23.6048Z" fill="#4D4D4D"/>
<path d="M25.1559 0.296875H6.84404C5.86304 0.296875 5.06335 1.09656 5.06335 2.07756V29.9209C5.06335 30.9019 5.86304 31.7016 6.84404 31.7016H25.1559C26.1369 31.7016 26.9366 30.9019 26.9366 29.9209V2.07756C26.9366 1.09656 26.1369 0.296875 25.1559 0.296875ZM25.9653 29.9208C25.9653 30.3676 25.5994 30.7302 25.1559 30.7302H6.84404C6.40048 30.7302 6.03467 30.3676 6.03467 29.9208V2.07756C6.03467 1.63075 6.40054 1.26819 6.84404 1.26819H25.1559C25.5995 1.26819 25.9653 1.63081 25.9653 2.07756V29.9208Z" fill="#4D4D4D"/>
<path d="M10.5435 3.54297H9.33445C9.20565 3.54297 9.08213 3.59413 8.99106 3.68521C8.89999 3.77628 8.84882 3.8998 8.84882 4.02859V7.97428C8.84882 8.10308 8.89999 8.2266 8.99106 8.31767C9.08213 8.40874 9.20565 8.45991 9.33445 8.45991C9.46324 8.45991 9.58677 8.40874 9.67784 8.31767C9.76891 8.2266 9.82007 8.10308 9.82007 7.97428V6.48716H10.5434C11.3551 6.48716 12.0155 5.82684 12.0155 5.01509C12.0155 4.20334 11.3551 3.54297 10.5435 3.54297ZM10.5435 5.51591H9.82014V4.51422H10.5435C10.8195 4.51422 11.0443 4.73884 11.0443 5.01503C11.0443 5.29122 10.8196 5.51591 10.5435 5.51591ZM16.0009 8.45991C16.1297 8.45991 16.2533 8.40874 16.3443 8.31767C16.4354 8.2266 16.4866 8.10308 16.4866 7.97428V6.79166H17.7108V7.97428C17.7108 8.10308 17.7619 8.2266 17.853 8.31767C17.9441 8.40874 18.0676 8.45991 18.1964 8.45991C18.3252 8.45991 18.4487 8.40874 18.5398 8.31767C18.6308 8.2266 18.682 8.10308 18.682 7.97428V5.12653C18.682 4.25341 17.9716 3.54297 17.0986 3.54297C16.2257 3.54297 15.5153 4.25341 15.5153 5.12653V7.97428C15.5153 8.10308 15.5665 8.22659 15.6576 8.31766C15.7486 8.40872 15.8722 8.45989 16.0009 8.45991ZM16.4866 5.12653C16.4866 4.78884 16.761 4.51428 17.0987 4.51428C17.4364 4.51428 17.7108 4.78891 17.7108 5.12653V5.82034H16.4866V5.12653H16.4866ZM19.9309 8.45991C20.0597 8.45991 20.1833 8.40874 20.2743 8.31767C20.3654 8.2266 20.4166 8.10308 20.4166 7.97428V5.58197L22.2665 8.25091C22.3254 8.33602 22.41 8.40008 22.5078 8.43374C22.6057 8.4674 22.7118 8.46889 22.8106 8.438C22.9094 8.40711 22.9957 8.34545 23.057 8.26203C23.1182 8.17861 23.1512 8.07778 23.1511 7.97428V4.02859C23.1511 3.8998 23.1 3.77628 23.0089 3.68521C22.9178 3.59413 22.7943 3.54297 22.6655 3.54297C22.5367 3.54297 22.4132 3.59413 22.3221 3.68521C22.2311 3.77628 22.1799 3.8998 22.1799 4.02859V6.42091L20.3299 3.75197C20.271 3.66698 20.1864 3.60304 20.0886 3.56946C19.9907 3.53589 19.8847 3.53443 19.786 3.5653C19.6873 3.59617 19.601 3.65776 19.5397 3.74109C19.4784 3.82443 19.4454 3.92515 19.4453 4.02859V7.97428C19.4453 8.03805 19.4579 8.1012 19.4823 8.16012C19.5067 8.21904 19.5425 8.27258 19.5876 8.31767C19.6327 8.36276 19.6862 8.39854 19.7451 8.42294C19.804 8.44735 19.8672 8.45991 19.9309 8.45991ZM12.7972 8.45991H14.7338C14.8626 8.45991 14.9861 8.40874 15.0772 8.31767C15.1682 8.2266 15.2194 8.10308 15.2194 7.97428C15.2194 7.84549 15.1682 7.72197 15.0772 7.63089C14.9861 7.53982 14.8626 7.48866 14.7338 7.48866H13.2828V4.02866C13.2828 3.89986 13.2317 3.77634 13.1406 3.68527C13.0495 3.5942 12.926 3.54303 12.7972 3.54303C12.6684 3.54303 12.5449 3.5942 12.4538 3.68527C12.3627 3.77634 12.3116 3.89986 12.3116 4.02866V7.97434C12.3116 8.10313 12.3628 8.22663 12.4538 8.31769C12.5449 8.40875 12.6684 8.45991 12.7972 8.45991ZM10.1313 11.989L8.90039 13.2197L8.70501 13.0243C8.61394 12.9333 8.49045 12.8821 8.36168 12.8821C8.2329 12.8821 8.10938 12.9332 8.01826 13.0242C7.97315 13.0693 7.93737 13.1228 7.91296 13.1817C7.88854 13.2406 7.87598 13.3038 7.87598 13.3676C7.87598 13.4314 7.88854 13.4945 7.91296 13.5535C7.93737 13.6124 7.97315 13.6659 8.01826 13.711L8.55701 14.25C8.74751 14.4405 9.05489 14.4388 9.24376 14.25L10.8179 12.6758C10.8631 12.6307 10.8988 12.5772 10.9232 12.5182C10.9477 12.4593 10.9602 12.3962 10.9602 12.3324C10.9602 12.2686 10.9477 12.2055 10.9232 12.1466C10.8988 12.0876 10.8631 12.0341 10.8179 11.989C10.7729 11.9439 10.7194 11.9081 10.6604 11.8837C10.6015 11.8593 10.5384 11.8467 10.4746 11.8467C10.4108 11.8467 10.3477 11.8593 10.2888 11.8837C10.2299 11.9081 10.1763 11.9439 10.1313 11.989ZM10.1313 17.4733L8.90039 18.704L8.70501 18.5086C8.61394 18.4176 8.49045 18.3664 8.36168 18.3664C8.2329 18.3663 8.10938 18.4174 8.01826 18.5084C7.97315 18.5535 7.93737 18.607 7.91296 18.666C7.88854 18.7249 7.87598 18.7881 7.87598 18.8518C7.87598 18.9156 7.88854 18.9788 7.91296 19.0377C7.93737 19.0966 7.97315 19.1502 8.01826 19.1953L8.55701 19.7342C8.74751 19.9247 9.05489 19.923 9.24376 19.7342L10.8179 18.16C10.8631 18.1149 10.8988 18.0614 10.9232 18.0025C10.9477 17.9436 10.9602 17.8804 10.9602 17.8167C10.9602 17.7529 10.9477 17.6897 10.9232 17.6308C10.8988 17.5719 10.8631 17.5184 10.8179 17.4733C10.7729 17.4282 10.7193 17.3924 10.6604 17.368C10.6015 17.3436 10.5384 17.331 10.4746 17.331C10.4108 17.331 10.3477 17.3436 10.2888 17.368C10.2299 17.3924 10.1763 17.4282 10.1313 17.4733ZM10.1313 22.9576L8.90039 24.1883L8.70501 23.9929C8.61394 23.9019 8.49045 23.8507 8.36168 23.8507C8.2329 23.8506 8.10938 23.9017 8.01826 23.9927C7.97315 24.0378 7.93737 24.0914 7.91296 24.1503C7.88854 24.2092 7.87598 24.2724 7.87598 24.3362C7.87598 24.3999 7.88854 24.4631 7.91296 24.522C7.93737 24.581 7.97315 24.6345 8.01826 24.6796L8.55701 25.2185C8.74751 25.409 9.05489 25.4073 9.24376 25.2185L10.8179 23.6443C10.8631 23.5993 10.8988 23.5457 10.9232 23.4868C10.9477 23.4279 10.9602 23.3647 10.9602 23.301C10.9602 23.2372 10.9477 23.174 10.9232 23.1151C10.8988 23.0562 10.8631 23.0027 10.8179 22.9576C10.7729 22.9125 10.7193 22.8767 10.6604 22.8523C10.6015 22.8279 10.5384 22.8153 10.4746 22.8153C10.4108 22.8153 10.3477 22.8279 10.2888 22.8523C10.2299 22.8767 10.1763 22.9125 10.1313 22.9576Z" fill="#4D4D4D"/>
</svg>
