<svg width="32" height="32" viewBox="0 0 32 32" fill="none" xmlns="http://www.w3.org/2000/svg">
<g clip-path="url(#clip0_775_19014)">
<path d="M0.628751 31.9079C0.976001 31.9079 1.2575 31.6264 1.2575 31.2791C1.2575 30.9319 0.976001 30.6504 0.628751 30.6504C0.281502 30.6504 0 30.9319 0 31.2791C0 31.6264 0.281502 31.9079 0.628751 31.9079Z" fill="#4D4D4D"/>
<path d="M16.6878 15.9601C17.0344 15.9601 17.3153 15.6791 17.3153 15.3326C17.3153 14.986 17.0344 14.7051 16.6878 14.7051C16.3412 14.7051 16.0603 14.986 16.0603 15.3326C16.0603 15.6791 16.3412 15.9601 16.6878 15.9601Z" fill="#4D4D4D"/>
<path d="M24.905 7.37795C24.4005 6.87345 23.7298 6.5957 23.0165 6.5957C22.3031 6.5957 21.6323 6.87358 21.128 7.37795C20.0866 8.41933 20.0866 10.1137 21.128 11.155C21.6487 11.6757 22.3325 11.936 23.0165 11.936C23.7003 11.936 24.3843 11.6756 24.905 11.155C25.9463 10.1136 25.9463 8.41927 24.905 7.37795ZM24.0176 10.2676C23.4656 10.8196 22.5673 10.8196 22.0153 10.2676C21.4633 9.71558 21.4633 8.81733 22.0153 8.26527C22.1465 8.13338 22.3025 8.02882 22.4744 7.95764C22.6462 7.88646 22.8305 7.85007 23.0165 7.85058C23.2025 7.85007 23.3867 7.88646 23.5586 7.95764C23.7304 8.02882 23.8864 8.13338 24.0176 8.26527C24.5696 8.81733 24.5697 9.71558 24.0176 10.2676ZM7.83805 25.7166C7.5278 25.5621 7.15118 25.6884 6.99668 25.9986L6.2493 27.4996C5.9243 28.1521 5.27067 28.5885 4.5433 28.6382L3.67405 28.6977C3.52711 28.7076 3.43048 28.6344 3.3858 28.5897C3.34111 28.545 3.26773 28.4482 3.27773 28.3014L3.33723 27.4322C3.38705 26.7049 3.82342 26.0512 4.47592 25.7262L5.9768 24.9788C6.28705 24.8243 6.4133 24.4476 6.2588 24.1374C6.10436 23.8272 5.72767 23.7009 5.41742 23.8554L3.91655 24.6028C2.86704 25.1254 2.16529 26.1767 2.08517 27.3464L2.02567 28.2156C2.00976 28.4474 2.04371 28.68 2.12524 28.8976C2.20676 29.1152 2.33397 29.3128 2.49829 29.4771C2.66259 29.6414 2.86018 29.7686 3.07778 29.8501C3.29537 29.9317 3.52791 29.9656 3.75973 29.9497L4.62899 29.8902C5.79874 29.8102 6.84999 29.1085 7.37261 28.0589L8.11999 26.558C8.27449 26.2477 8.14824 25.8711 7.83805 25.7166Z" fill="#4D4D4D"/>
<path d="M31.5669 0.511632C31.4212 0.368085 31.2469 0.256923 31.0552 0.185418C30.8636 0.113914 30.659 0.0836799 30.4549 0.0966938L29.8706 0.133944C24.6319 0.468382 19.7292 2.99707 16.4197 7.07171L15.0444 8.76477L11.4455 8.65909C11.4393 8.65891 11.4332 8.65883 11.4271 8.65884C8.57284 8.65884 5.88939 9.77034 3.87108 11.7886L0.184945 15.4748C0.0991499 15.5606 0.0400796 15.6695 0.0148893 15.7882C-0.010301 15.9069 -0.000530429 16.0303 0.0430175 16.1436C0.0865654 16.2569 0.162022 16.3551 0.260248 16.4264C0.358475 16.4976 0.475256 16.5389 0.596446 16.5451L8.39921 16.946L8.08109 17.3377C8.00269 17.4342 7.95474 17.5518 7.94332 17.6756C7.9319 17.7995 7.95754 17.9239 8.01696 18.0331C8.13913 18.2576 8.26718 18.4789 8.40096 18.6967L6.55058 20.8934C6.47313 20.9853 6.42373 21.0976 6.40826 21.2169C6.39278 21.3361 6.41187 21.4573 6.46327 21.566C6.86746 22.4201 7.4039 23.1875 8.0579 23.8469C8.72777 24.5224 9.51109 25.0747 10.386 25.4888C10.4929 25.5394 10.6119 25.5587 10.7294 25.5446C10.8468 25.5305 10.9578 25.4834 11.0497 25.4089C11.4483 25.0856 11.9079 24.702 12.3524 24.3311C12.6692 24.0667 12.9933 23.7963 13.2963 23.5469C13.4772 23.656 13.6605 23.7612 13.846 23.8623C13.9379 23.9124 14.041 23.9386 14.1457 23.9386C14.2823 23.9386 14.4181 23.8941 14.5305 23.8069L14.9582 23.475L15.3608 31.3106C15.369 31.4712 15.4386 31.6225 15.5552 31.7333C15.6718 31.8441 15.8264 31.9059 15.9872 31.906C16.1507 31.906 16.3112 31.8421 16.431 31.7221L20.1172 28.0359C22.1355 26.0176 23.247 23.3342 23.247 20.4799V17.0427L24.7012 15.9143C29.0592 12.5324 31.7134 7.43277 31.9832 1.92288L31.9981 1.61751C32.0081 1.41322 31.9748 1.20912 31.9005 1.01856C31.8262 0.828002 31.7126 0.655263 31.5669 0.511632ZM2.0702 15.3643L4.75845 12.676C6.53752 10.897 8.9024 9.91621 11.418 9.91378L14.0483 9.99103L9.37896 15.7398L2.0702 15.3643ZM11.5484 23.3675C11.2208 23.6408 10.885 23.9211 10.5734 24.1774C9.97065 23.8509 9.4254 23.4436 8.9489 22.9631C8.4874 22.4978 8.09459 21.968 7.77783 21.3844L9.13259 19.776C9.54274 20.3263 9.99132 20.8469 10.475 21.3339L10.4761 21.3349L10.4765 21.3354L10.477 21.3359C11.0132 21.8753 11.5908 22.3718 12.2046 22.8209C11.9882 23.0005 11.7665 23.1856 11.5484 23.3675ZM21.9922 20.4799C21.9922 22.999 21.0113 25.3672 19.23 27.1486L16.5417 29.8368L16.1666 22.5373L21.9922 18.0167V20.4799H21.9922ZM30.7299 1.86157C30.4781 7.00514 28.0004 11.7658 23.932 14.9228L14.0907 22.5597C13.2746 22.0828 12.5139 21.5197 11.8177 20.8818L15.1356 17.5639C15.3806 17.3189 15.3806 16.9215 15.1356 16.6765C14.8905 16.4314 14.4932 16.4314 14.2482 16.6765L10.9334 19.9912C10.324 19.3165 9.78421 18.5824 9.32465 17.7972L17.3938 7.8629C20.4833 4.0592 25.0601 1.69857 29.9505 1.38645L30.5348 1.3492C30.5626 1.34737 30.5904 1.35145 30.6165 1.36119C30.6426 1.37093 30.6664 1.3861 30.6862 1.4057C30.7098 1.42888 30.7487 1.47932 30.7449 1.55626L30.7299 1.86157Z" fill="#4D4D4D"/>
</g>
<defs>
<clipPath id="clip0_775_19014">
<rect width="32" height="32" fill="white"/>
</clipPath>
</defs>
</svg>
