<svg width="32" height="32" viewBox="0 0 32 32" fill="none" xmlns="http://www.w3.org/2000/svg">
<path d="M17.9209 9.25596C16.663 8.91367 15.3363 8.9147 14.0789 9.25896C13.9726 9.28737 13.8785 9.35012 13.8114 9.43745C13.7443 9.52479 13.708 9.63183 13.7079 9.74196V10.5255C13.7096 10.5904 13.6926 10.6544 13.6589 10.7099C13.6252 10.7654 13.5763 10.81 13.5179 10.8385C13.2136 10.9757 12.9213 11.1384 12.6444 11.325C12.5829 11.3616 12.5126 11.3809 12.4409 11.3809C12.3693 11.3809 12.299 11.3616 12.2374 11.325L11.5354 10.9325C11.4422 10.8804 11.3348 10.8596 11.229 10.873C11.1231 10.8864 11.0242 10.9334 10.9469 11.007C10.0179 11.8871 9.35 13.0068 9.01695 14.2425C8.98812 14.3499 8.99597 14.464 9.03926 14.5665C9.08255 14.669 9.1588 14.7542 9.25595 14.8085L10.1679 15.3175C10.1084 15.7705 10.1084 16.2294 10.1679 16.6825L9.25645 17.1915C9.15942 17.2456 9.0832 17.3306 9.03983 17.4329C8.99646 17.5352 8.98841 17.6491 9.01695 17.7565C9.34825 18.9928 10.0148 20.1136 10.9429 20.995C11.0202 21.0687 11.119 21.1157 11.2249 21.1291C11.3309 21.1426 11.4383 21.1216 11.5314 21.0695L12.2374 20.6755C12.299 20.6387 12.3693 20.6193 12.4409 20.6193C12.5126 20.6193 12.5829 20.6387 12.6444 20.6755C12.921 20.8618 13.2129 21.0244 13.5169 21.1615C13.5754 21.1899 13.6244 21.2345 13.6581 21.29C13.6919 21.3455 13.709 21.4095 13.7074 21.4745V22.261C13.7075 22.3711 13.7438 22.4781 13.8109 22.5655C13.878 22.6528 13.9721 22.7155 14.0784 22.744C14.7062 22.9129 15.3534 22.999 16.0034 23L16.0919 22.9995C16.71 22.9892 17.3243 22.9024 17.9209 22.741C18.0273 22.7125 18.1214 22.6498 18.1885 22.5625C18.2556 22.4751 18.2919 22.3681 18.2919 22.258V21.475C18.2903 21.4101 18.3074 21.3461 18.3411 21.2906C18.3747 21.2351 18.4236 21.1905 18.4819 21.162C18.7863 21.0247 19.0785 20.8619 19.3554 20.6755C19.417 20.6388 19.4873 20.6195 19.5589 20.6195C19.6306 20.6195 19.7009 20.6388 19.7625 20.6755L20.4644 21.068C20.5576 21.1201 20.665 21.1411 20.771 21.1276C20.8769 21.1142 20.9757 21.0672 21.0529 20.9935C21.9821 20.1134 22.65 18.9937 22.9829 17.758C23.0117 17.6504 23.0038 17.5363 22.9604 17.4338C22.917 17.3313 22.8407 17.2462 22.7434 17.192L21.832 16.683C21.8912 16.2299 21.8912 15.771 21.832 15.318L22.7434 14.809C22.8406 14.7548 22.9169 14.6697 22.9602 14.5673C23.0036 14.4649 23.0116 14.3509 22.9829 14.2435C22.6513 13.0073 21.9846 11.8867 21.0564 11.0055C20.9792 10.9319 20.8803 10.8849 20.7744 10.8715C20.6686 10.8581 20.5611 10.8789 20.4679 10.931L19.7625 11.325C19.7009 11.3616 19.6306 11.381 19.5589 11.381C19.4873 11.381 19.417 11.3616 19.3554 11.325C19.0786 11.1387 18.7866 10.9761 18.4824 10.839C18.424 10.8106 18.375 10.766 18.3412 10.7105C18.3074 10.655 18.2903 10.5909 18.2919 10.526V9.73946C18.2919 9.62933 18.2556 9.52229 18.1885 9.43495C18.1214 9.34762 18.0273 9.28487 17.9209 9.25646V9.25596ZM18.7964 12.154C19.0116 12.2937 19.2609 12.3717 19.5173 12.3795C19.7737 12.3872 20.0273 12.3244 20.2504 12.198L20.624 11.989C21.1978 12.6044 21.6344 13.3347 21.905 14.1315L21.0389 14.615C20.9473 14.6661 20.874 14.7449 20.8296 14.84C20.7852 14.9351 20.7718 15.0418 20.7914 15.145C20.9045 15.7094 20.9045 16.2906 20.7914 16.855C20.7718 16.9581 20.7852 17.0648 20.8296 17.1599C20.874 17.2551 20.9473 17.3338 21.0389 17.385L21.905 17.8685C21.6331 18.6649 21.1955 19.3946 20.6209 20.0095L20.2499 19.802C20.0269 19.6755 19.7734 19.6127 19.517 19.6204C19.2607 19.6282 19.0115 19.7062 18.7964 19.846C18.5664 20.0008 18.3237 20.1359 18.0709 20.25C17.8372 20.3578 17.6394 20.5306 17.5013 20.7479C17.3631 20.9651 17.2905 21.2175 17.2919 21.475V21.8635C16.4402 22.0447 15.56 22.0456 14.7079 21.866V21.4745C14.7092 21.2171 14.6364 20.9647 14.4982 20.7476C14.36 20.5305 14.1622 20.3577 13.9284 20.25C13.6758 20.136 13.4333 20.0009 13.2034 19.846C12.9885 19.706 12.7392 19.6279 12.4829 19.6201C12.2265 19.6123 11.9729 19.6753 11.7499 19.802L11.3759 20.011C10.8021 19.3955 10.3655 18.6652 10.0949 17.8685L10.9604 17.385C11.0521 17.3338 11.1254 17.2551 11.1698 17.1599C11.2142 17.0648 11.2276 16.9581 11.2079 16.855C11.095 16.2906 11.095 15.7094 11.2079 15.145C11.2276 15.0419 11.2143 14.9352 11.17 14.8401C11.1257 14.745 11.0525 14.6662 10.9609 14.615L10.0949 14.1315C10.3668 13.3349 10.8046 12.6052 11.3794 11.9905L11.7494 12.198C11.9726 12.3244 12.2262 12.3871 12.4826 12.3794C12.739 12.3716 12.9883 12.2936 13.2034 12.154C13.4332 11.999 13.6758 11.8639 13.9284 11.75C14.1623 11.6423 14.3603 11.4694 14.4985 11.2522C14.6367 11.0349 14.7095 10.7825 14.7079 10.525V10.1365C15.1066 10.052 15.5125 10.0065 15.9199 10.0005C16.3807 9.99597 16.8407 10.0407 17.2919 10.134V10.5255C17.2905 10.7829 17.3633 11.0352 17.5015 11.2524C17.6398 11.4695 17.8376 11.6423 18.0715 11.75C18.324 11.864 18.5666 11.9992 18.7964 12.154Z" fill="#4D4D4D"/>
<path d="M12.5 16C12.5 16.6922 12.7053 17.3689 13.0899 17.9445C13.4744 18.5201 14.0211 18.9687 14.6606 19.2336C15.3001 19.4985 16.0039 19.5678 16.6828 19.4327C17.3617 19.2977 17.9854 18.9644 18.4749 18.4749C18.9644 17.9854 19.2977 17.3617 19.4327 16.6828C19.5678 16.0039 19.4985 15.3001 19.2336 14.6606C18.9687 14.0211 18.5201 13.4744 17.9445 13.0899C17.3689 12.7053 16.6922 12.5 16 12.5C15.0721 12.5011 14.1824 12.8701 13.5263 13.5263C12.8701 14.1824 12.5011 15.0721 12.5 16ZM18.5 16C18.5 16.4945 18.3534 16.9778 18.0787 17.3889C17.804 17.8 17.4135 18.1205 16.9567 18.3097C16.4999 18.4989 15.9972 18.5484 15.5123 18.452C15.0273 18.3555 14.5819 18.1174 14.2322 17.7678C13.8826 17.4181 13.6445 16.9727 13.548 16.4877C13.4516 16.0028 13.5011 15.5001 13.6903 15.0433C13.8795 14.5865 14.2 14.196 14.6111 13.9213C15.0222 13.6466 15.5055 13.5 16 13.5C16.6628 13.5008 17.2982 13.7644 17.7669 14.2331C18.2356 14.7018 18.4992 15.3372 18.5 16ZM12.5 30C12.5 30.0905 12.5245 30.1793 12.5711 30.257C12.6176 30.3347 12.6843 30.3982 12.7641 30.4409C12.8439 30.4836 12.9338 30.5039 13.0243 30.4995C13.1147 30.4951 13.2022 30.4662 13.2775 30.416L16.2775 28.416C16.346 28.3703 16.4021 28.3085 16.441 28.2359C16.4798 28.1633 16.5001 28.0823 16.5001 28C16.5001 27.9177 16.4798 27.8367 16.441 27.7641C16.4021 27.6915 16.346 27.6297 16.2775 27.584L13.2775 25.584C13.2022 25.5338 13.1147 25.5049 13.0243 25.5005C12.9338 25.4961 12.8439 25.5164 12.7641 25.5591C12.6843 25.6018 12.6176 25.6653 12.5711 25.743C12.5245 25.8207 12.5 25.9095 12.5 26V27.5H0.5V28.5H12.5V30ZM13.5 26.9345L15.0985 28L13.5 29.0655V26.9345Z" fill="#4D4D4D"/>
<path d="M31.2775 3.58407L28.2775 1.58407C28.2022 1.53384 28.1147 1.50498 28.0243 1.50059C27.9339 1.4962 27.844 1.51643 27.7641 1.55914C27.6843 1.60184 27.6176 1.66541 27.5711 1.74307C27.5246 1.82073 27.5 1.90955 27.5 2.00007V3.50007H16C14.2492 3.49934 12.5178 3.8676 10.9189 4.58084C9.3199 5.29409 7.88919 6.33632 6.72003 7.63958C6.4908 7.54868 6.24661 7.50137 6.00003 7.50007C5.60446 7.49988 5.21772 7.61705 4.88878 7.83675C4.55983 8.05645 4.30346 8.36881 4.15212 8.73428C4.00078 9.09976 3.96128 9.50192 4.03861 9.88985C4.11593 10.2778 4.30662 10.6341 4.58653 10.9136C3.86687 12.5126 3.49647 14.2466 3.50003 16.0001C3.50056 17.7736 3.87836 19.5268 4.60835 21.1431C5.33834 22.7595 6.40381 24.202 7.73403 25.3751L8.39603 24.6251C7.17209 23.546 6.19171 22.2188 5.52 20.7318C4.84828 19.2447 4.5006 17.6318 4.50003 16.0001C4.4965 14.4219 4.82228 12.8603 5.45653 11.4151C5.63283 11.4687 5.81578 11.4973 6.00003 11.5001C6.53026 11.4994 7.03858 11.2885 7.41351 10.9136C7.78844 10.5386 7.99936 10.0303 8.00003 9.50008C7.99801 9.03492 7.83233 8.58531 7.53203 8.23007C8.60676 7.05397 9.91488 6.11483 11.3729 5.4726C12.8309 4.83036 14.4068 4.49914 16 4.50007H27.5V6.00007C27.5 6.0906 27.5246 6.17942 27.5711 6.25708C27.6176 6.33474 27.6843 6.39831 27.7641 6.44101C27.844 6.48372 27.9339 6.50395 28.0243 6.49956C28.1147 6.49517 28.2022 6.46631 28.2775 6.41607L31.2775 4.41607C31.346 4.37041 31.4022 4.30855 31.441 4.23598C31.4798 4.16341 31.5001 4.08238 31.5001 4.00007C31.5001 3.91777 31.4798 3.83674 31.441 3.76417C31.4022 3.6916 31.346 3.62974 31.2775 3.58407ZM6.00003 10.5001C5.80224 10.5001 5.6089 10.4414 5.44446 10.3315C5.28001 10.2217 5.15183 10.0655 5.07615 9.88276C5.00046 9.70003 4.98065 9.49897 5.01924 9.30498C5.05783 9.111 5.15307 8.93282 5.29292 8.79297C5.43277 8.65312 5.61095 8.55787 5.80493 8.51929C5.99892 8.4807 6.19998 8.50051 6.38271 8.5762C6.56543 8.65188 6.72161 8.78006 6.83149 8.9445C6.94138 9.10895 7.00003 9.30229 7.00003 9.50008C6.99976 9.76521 6.89432 10.0194 6.70684 10.2069C6.51936 10.3944 6.26516 10.4998 6.00003 10.5001ZM28.5 5.06557V2.93507L30.0985 4.00007L28.5 5.06557Z" fill="#4D4D4D"/>
<path d="M18.875 27.1356L19.125 28.1041C22.1132 27.3326 24.7074 25.4767 26.4025 22.8976C26.5952 22.9621 26.7968 22.9963 27 22.9991C27.4352 23.0003 27.8589 22.8591 28.2065 22.5971C28.554 22.3351 28.8063 21.9666 28.9249 21.5478C29.0435 21.1291 29.0219 20.683 28.8634 20.2776C28.7049 19.8723 28.4182 19.5299 28.047 19.3026C28.6687 17.062 28.6503 14.6921 27.994 12.4614C27.3376 10.2307 26.0696 8.22851 24.3335 6.68164L23.666 7.42664C25.2593 8.84621 26.4243 10.6828 27.0295 12.7291C27.6347 14.7755 27.656 16.9503 27.091 19.0081C27.0605 19.0071 27.031 18.9991 27 18.9991C26.6089 18.998 26.2261 19.112 25.8992 19.3267C25.5724 19.5415 25.3159 19.8476 25.1616 20.207C25.0073 20.5664 24.9622 20.9632 25.0317 21.3481C25.1012 21.7329 25.2823 22.0889 25.5525 22.3716C23.9927 24.731 21.6135 26.4284 18.875 27.1356ZM27 19.9991C27.1978 19.9991 27.3911 20.0578 27.5556 20.1677C27.72 20.2776 27.8482 20.4337 27.9239 20.6165C27.9996 20.7992 28.0194 21.0003 27.9808 21.1942C27.9422 21.3882 27.847 21.5664 27.7071 21.7062C27.5673 21.8461 27.3891 21.9413 27.1951 21.9799C27.0011 22.0185 26.8 21.9987 26.6173 21.923C26.4346 21.8473 26.2784 21.7192 26.1685 21.5547C26.0586 21.3903 26 21.1969 26 20.9991C26.0003 20.734 26.1057 20.4798 26.2932 20.2923C26.4807 20.1048 26.7349 19.9994 27 19.9991Z" fill="#4D4D4D"/>
</svg>
