<svg width="32" height="32" viewBox="0 0 32 32" fill="none" xmlns="http://www.w3.org/2000/svg">
<path fill-rule="evenodd" clip-rule="evenodd" d="M9.5 14H8.5C7.83696 14 7.20107 14.2634 6.73223 14.7322C6.26339 15.2011 6 15.837 6 16.5V27.5C6 28.163 6.26339 28.7989 6.73223 29.2678C7.20107 29.7366 7.83696 30 8.5 30H23.5C24.163 30 24.7989 29.7366 25.2678 29.2678C25.7366 28.7989 26 28.163 26 27.5V16.5C26 15.837 25.7366 15.2011 25.2678 14.7322C24.7989 14.2634 24.163 14 23.5 14H22.5V7.5C22.5 6.04131 21.9205 4.64236 20.8891 3.61091C19.8576 2.57946 18.4587 2 17 2H15C13.5413 2 12.1424 2.57946 11.1109 3.61091C10.0795 4.64236 9.5 6.04131 9.5 7.5V14ZM25 16.5V27.5C24.9992 27.8976 24.8409 28.2787 24.5598 28.5598C24.2787 28.8409 23.8976 28.9992 23.5 29H8.5C8.10242 28.9992 7.72135 28.8409 7.44022 28.5598C7.15908 28.2787 7.00079 27.8976 7 27.5V16.5C7.00079 16.1024 7.15908 15.7213 7.44022 15.4402C7.72135 15.1591 8.10242 15.0008 8.5 15H23.5C23.8976 15.0008 24.2787 15.1591 24.5598 15.4402C24.8409 15.7213 24.9992 16.1024 25 16.5ZM15.292 21.5H11.25V22.5H15.292C15.3872 23.0643 15.6417 23.5896 16.0255 24.014C16.4094 24.4385 16.9066 24.7443 17.4586 24.8954C18.0105 25.0466 18.5941 25.0368 19.1407 24.8672C19.6872 24.6975 20.1739 24.3752 20.5433 23.9381C20.9127 23.501 21.1494 22.9675 21.2255 22.4003C21.3017 21.8331 21.2141 21.256 20.973 20.737C20.732 20.218 20.3476 19.7787 19.8651 19.4709C19.3827 19.1632 18.8223 18.9998 18.25 19C17.5412 19.0004 16.8553 19.2516 16.3139 19.7092C15.7725 20.1668 15.4105 20.8011 15.292 21.5ZM18.25 20C18.5127 20.0001 18.7728 20.0519 19.0155 20.1525C19.2582 20.2531 19.4787 20.4005 19.6644 20.5863C19.8501 20.7721 19.9974 20.9927 20.0979 21.2354C20.1984 21.4781 20.2501 21.7383 20.25 22.001C20.2499 22.2637 20.1981 22.5238 20.0975 22.7665C19.9969 23.0092 19.8495 23.2297 19.6637 23.4154C19.4779 23.6011 19.2573 23.7484 19.0146 23.8489C18.7719 23.9494 18.5117 24.0011 18.249 24.001C17.7184 24.0009 17.2097 23.79 16.8346 23.4147C16.4595 23.0395 16.2489 22.5306 16.249 22C16.2491 21.4694 16.46 20.9607 16.8353 20.5856C17.2105 20.2105 17.7194 19.9999 18.25 20ZM21.5 14H10.5V7.5C10.5 6.30653 10.9741 5.16193 11.818 4.31802C12.6619 3.47411 13.8065 3 15 3H17C18.1935 3 19.3381 3.47411 20.182 4.31802C21.0259 5.16193 21.5 6.30653 21.5 7.5V14Z" fill="#4D4D4D"/>
</svg>
