<svg width="32" height="32" viewBox="0 0 32 32" fill="none" xmlns="http://www.w3.org/2000/svg">
<path d="M30.2857 16.572C30.2827 14.9531 29.7075 13.3873 28.6619 12.1514C27.6163 10.9154 26.1674 10.0889 24.5714 9.8177V6.8577C24.5715 6.78261 24.5568 6.70823 24.5282 6.63881C24.4996 6.56939 24.4576 6.5063 24.4045 6.45313L19.8331 1.8817C19.7799 1.82867 19.7168 1.78664 19.6474 1.75801C19.578 1.72938 19.5036 1.71471 19.4285 1.71484H5.71423C5.56268 1.71484 5.41734 1.77505 5.31017 1.88221C5.20301 1.98938 5.14281 2.13472 5.14281 2.28627V5.14342H2.28566C2.13411 5.14342 1.98876 5.20362 1.8816 5.31078C1.77444 5.41795 1.71423 5.56329 1.71423 5.71484V29.7148C1.71423 29.8664 1.77444 30.0117 1.8816 30.1189C1.98876 30.2261 2.13411 30.2863 2.28566 30.2863H21.7142C21.8658 30.2863 22.0111 30.2261 22.1183 30.1189C22.2255 30.0117 22.2857 29.8664 22.2857 29.7148V26.8577H23.9999C24.1515 26.8577 24.2968 26.7975 24.404 26.6903C24.5112 26.5832 24.5714 26.4378 24.5714 26.2863V23.3263C26.1674 23.0551 27.6163 22.2285 28.6619 20.9926C29.7075 19.7567 30.2827 18.1909 30.2857 16.572ZM19.9999 3.6657L22.6205 6.28627H19.9999V3.6657ZM21.1428 29.1434H2.85709V6.28627H5.14281V26.2863C5.14281 26.4378 5.20301 26.5832 5.31017 26.6903C5.41734 26.7975 5.56268 26.8577 5.71423 26.8577H21.1428V29.1434ZM23.4285 25.7148H6.28566V2.8577H18.8571V6.8577C18.8571 7.00925 18.9173 7.1546 19.0245 7.26176C19.1316 7.36893 19.277 7.42913 19.4285 7.42913H23.4285V9.71485C21.6099 9.71485 19.8658 10.4373 18.5798 11.7233C17.2938 13.0092 16.5714 14.7534 16.5714 16.572C16.5714 18.3906 17.2938 20.1348 18.5798 21.4207C19.8658 22.7067 21.6099 23.4291 23.4285 23.4291V25.7148ZM23.4285 22.2863C22.2983 22.2863 21.1935 21.9511 20.2538 21.3232C19.3141 20.6953 18.5817 19.8029 18.1492 18.7588C17.7167 17.7146 17.6035 16.5656 17.824 15.4572C18.0445 14.3487 18.5888 13.3305 19.3879 12.5314C20.1871 11.7322 21.2053 11.188 22.3137 10.9675C23.4222 10.747 24.5711 10.8602 25.6153 11.2927C26.6594 11.7252 27.5519 12.4576 28.1798 13.3973C28.8077 14.337 29.1428 15.4418 29.1428 16.572C29.141 18.087 28.5384 19.5394 27.4671 20.6106C26.3959 21.6818 24.9435 22.2845 23.4285 22.2863Z" fill="#4D4D4D"/>
<path d="M26.1188 13.8809C26.0657 13.8276 26.0027 13.7854 25.9333 13.7566C25.8638 13.7278 25.7894 13.713 25.7143 13.713C25.6391 13.713 25.5647 13.7278 25.4952 13.7566C25.4258 13.7854 25.3628 13.8276 25.3097 13.8809L23.4285 15.7632L21.5474 13.8809C21.4401 13.7736 21.2946 13.7133 21.1428 13.7133C20.9911 13.7133 20.8456 13.7736 20.7383 13.8809C20.631 13.9882 20.5707 14.1337 20.5707 14.2854C20.5707 14.4372 20.631 14.5827 20.7383 14.69L22.6205 16.5711L20.7383 18.4523C20.631 18.5596 20.5707 18.7051 20.5707 18.8569C20.5707 19.0086 20.631 19.1541 20.7383 19.2614C20.8456 19.3687 20.9911 19.429 21.1428 19.429C21.2946 19.429 21.4401 19.3687 21.5474 19.2614L23.4285 17.3791L25.3097 19.2614C25.417 19.3687 25.5625 19.429 25.7143 19.429C25.866 19.429 26.0115 19.3687 26.1188 19.2614C26.2261 19.1541 26.2864 19.0086 26.2864 18.8569C26.2864 18.7051 26.2261 18.5596 26.1188 18.4523L24.2365 16.5711L26.1188 14.69C26.172 14.6369 26.2143 14.5739 26.2431 14.5044C26.2719 14.435 26.2867 14.3606 26.2867 14.2854C26.2867 14.2103 26.2719 14.1358 26.2431 14.0664C26.2143 13.997 26.172 13.9339 26.1188 13.8809ZM9.14283 6.28544H16C16.1515 6.28544 16.2969 6.22523 16.404 6.11807C16.5112 6.0109 16.5714 5.86556 16.5714 5.71401C16.5714 5.56245 16.5112 5.41711 16.404 5.30995C16.2969 5.20278 16.1515 5.14258 16 5.14258H9.14283C8.99128 5.14258 8.84593 5.20278 8.73877 5.30995C8.6316 5.41711 8.5714 5.56245 8.5714 5.71401C8.5714 5.86556 8.6316 6.0109 8.73877 6.11807C8.84593 6.22523 8.99128 6.28544 9.14283 6.28544ZM16 8.57115H9.14283C8.99128 8.57115 8.84593 8.63135 8.73877 8.73852C8.6316 8.84568 8.5714 8.99103 8.5714 9.14258C8.5714 9.29413 8.6316 9.43948 8.73877 9.54664C8.84593 9.6538 8.99128 9.71401 9.14283 9.71401H16C16.1515 9.71401 16.2969 9.6538 16.404 9.54664C16.5112 9.43948 16.5714 9.29413 16.5714 9.14258C16.5714 8.99103 16.5112 8.84568 16.404 8.73852C16.2969 8.63135 16.1515 8.57115 16 8.57115ZM12.5714 11.9997H9.14283C8.99128 11.9997 8.84593 12.0599 8.73877 12.1671C8.6316 12.2743 8.5714 12.4196 8.5714 12.5711C8.5714 12.7227 8.6316 12.868 8.73877 12.9752C8.84593 13.0824 8.99128 13.1426 9.14283 13.1426H12.5714C12.723 13.1426 12.8683 13.0824 12.9755 12.9752C13.0826 12.868 13.1428 12.7227 13.1428 12.5711C13.1428 12.4196 13.0826 12.2743 12.9755 12.1671C12.8683 12.0599 12.723 11.9997 12.5714 11.9997ZM11.8331 15.5951C11.78 15.5419 11.717 15.4997 11.6476 15.4709C11.5781 15.4421 11.5037 15.4273 11.4285 15.4273C11.3534 15.4273 11.279 15.4421 11.2095 15.4709C11.1401 15.4997 11.0771 15.5419 11.024 15.5951L10.2857 16.3346L9.5474 15.5951C9.4401 15.4879 9.29457 15.4276 9.14283 15.4276C8.99109 15.4276 8.84556 15.4879 8.73826 15.5951C8.63096 15.7024 8.57068 15.848 8.57068 15.9997C8.57068 16.1515 8.63096 16.297 8.73826 16.4043L9.47769 17.1426L8.73826 17.8809C8.68513 17.934 8.64298 17.9971 8.61423 18.0665C8.58548 18.1359 8.57068 18.2103 8.57068 18.2854C8.57068 18.3606 8.58548 18.435 8.61423 18.5044C8.64298 18.5738 8.68513 18.6369 8.73826 18.69C8.79139 18.7431 8.85446 18.7853 8.92388 18.814C8.99329 18.8428 9.06769 18.8576 9.14283 18.8576C9.21797 18.8576 9.29237 18.8428 9.36178 18.814C9.4312 18.7853 9.49427 18.7431 9.5474 18.69L10.2857 17.9506L11.024 18.69C11.1313 18.7973 11.2768 18.8576 11.4285 18.8576C11.5803 18.8576 11.7258 18.7973 11.8331 18.69C11.9404 18.5827 12.0007 18.4372 12.0007 18.2854C12.0007 18.1337 11.9404 17.9882 11.8331 17.8809L11.0937 17.1426L11.8331 16.4043C11.8863 16.3512 11.9286 16.2882 11.9574 16.2187C11.9862 16.1493 12.001 16.0749 12.001 15.9997C12.001 15.9246 11.9862 15.8501 11.9574 15.7807C11.9286 15.7113 11.8863 15.6482 11.8331 15.5951ZM11.8331 20.1666C11.78 20.1134 11.717 20.0711 11.6476 20.0423C11.5781 20.0135 11.5037 19.9987 11.4285 19.9987C11.3534 19.9987 11.279 20.0135 11.2095 20.0423C11.1401 20.0711 11.0771 20.1134 11.024 20.1666L10.2857 20.906L9.5474 20.1666C9.4401 20.0593 9.29457 19.999 9.14283 19.999C8.99109 19.999 8.84556 20.0593 8.73826 20.1666C8.63096 20.2739 8.57068 20.4194 8.57068 20.5711C8.57068 20.7229 8.63096 20.8684 8.73826 20.9757L9.47769 21.714L8.73826 22.4523C8.63096 22.5596 8.57068 22.7051 8.57068 22.8569C8.57068 23.0086 8.63096 23.1541 8.73826 23.2614C8.84556 23.3687 8.99109 23.429 9.14283 23.429C9.29457 23.429 9.4401 23.3687 9.5474 23.2614L10.2857 22.522L11.024 23.2614C11.1313 23.3687 11.2768 23.429 11.4285 23.429C11.5803 23.429 11.7258 23.3687 11.8331 23.2614C11.9404 23.1541 12.0007 23.0086 12.0007 22.8569C12.0007 22.7051 11.9404 22.5596 11.8331 22.4523L11.0937 21.714L11.8331 20.9757C11.8863 20.9226 11.9286 20.8596 11.9574 20.7902C11.9862 20.7207 12.001 20.6463 12.001 20.5711C12.001 20.496 11.9862 20.4216 11.9574 20.3521C11.9286 20.2827 11.8863 20.2197 11.8331 20.1666Z" fill="#4D4D4D"/>
</svg>
