<svg width="32" height="32" viewBox="0 0 32 32" fill="none" xmlns="http://www.w3.org/2000/svg">
<path d="M30.3177 30.3172H1.6823C1.04968 30.3172 0.536865 29.8044 0.536865 29.1718V5.11809C0.536865 4.48547 1.04968 3.97266 1.6823 3.97266H30.3177C30.9503 3.97266 31.4631 4.48547 31.4631 5.11809V29.1718C31.4631 29.8044 30.9503 30.3172 30.3177 30.3172Z" fill="#E4EAF8"/>
<path d="M30.3177 3.97266H1.6823C1.04968 3.97266 0.536865 4.48547 0.536865 5.11809V8.55434H31.4631V5.11809C31.4631 4.48547 30.9503 3.97266 30.3177 3.97266Z" fill="#FF5050"/>
<path d="M11.9911 6.26333C11.3585 6.26333 10.8456 5.75052 10.8456 5.11789V2.82708C10.8456 2.19445 11.3585 1.68164 11.9911 1.68164C12.6237 1.68164 13.1365 2.19445 13.1365 2.82708V5.11789C13.1365 5.75052 12.6237 6.26333 11.9911 6.26333ZM7.40939 15.4266H3.97314C3.82126 15.4266 3.6756 15.3663 3.56821 15.2589C3.46081 15.1515 3.40047 15.0058 3.40045 14.854V12.5631C3.40047 12.4112 3.46081 12.2655 3.56821 12.1581C3.6756 12.0507 3.82126 11.9904 3.97314 11.9904H7.40939C7.56127 11.9904 7.70693 12.0507 7.81432 12.1581C7.92172 12.2655 7.98206 12.4112 7.98208 12.5631V14.8539C7.98208 14.9291 7.96728 15.0036 7.9385 15.0731C7.90972 15.1426 7.86754 15.2057 7.81436 15.2589C7.76118 15.3121 7.69805 15.3543 7.62856 15.383C7.55908 15.4118 7.4846 15.4266 7.40939 15.4266ZM14.2819 15.4266H10.8456C10.6938 15.4266 10.5481 15.3663 10.4407 15.2589C10.3333 15.1515 10.273 15.0058 10.273 14.854V12.5631C10.273 12.4112 10.3333 12.2655 10.4407 12.1581C10.5481 12.0507 10.6938 11.9904 10.8456 11.9904H14.2819C14.4338 11.9904 14.5794 12.0507 14.6868 12.1581C14.7942 12.2655 14.8546 12.4112 14.8546 12.5631V14.8539C14.8546 14.9291 14.8398 15.0036 14.811 15.0731C14.7822 15.1426 14.74 15.2057 14.6869 15.2589C14.6337 15.3121 14.5705 15.3543 14.5011 15.383C14.4316 15.4118 14.3571 15.4266 14.2819 15.4266ZM21.1544 15.4266H17.7181C17.5663 15.4266 17.4206 15.3663 17.3132 15.2589C17.2058 15.1515 17.1455 15.0058 17.1455 14.854V12.5631C17.1455 12.4112 17.2058 12.2655 17.3132 12.1581C17.4206 12.0507 17.5663 11.9904 17.7181 11.9904H21.1544C21.3063 11.9904 21.4519 12.0507 21.5593 12.1581C21.6667 12.2655 21.7271 12.4112 21.7271 12.5631V14.8539C21.7271 15.0058 21.6667 15.1515 21.5593 15.2589C21.4519 15.3663 21.3063 15.4266 21.1544 15.4266Z" fill="#C7CFE2"/>
<path d="M28.0269 15.4265H24.5906C24.4388 15.4265 24.2931 15.3661 24.1857 15.2587C24.0783 15.1513 24.018 15.0057 24.0179 14.8538V12.5629C24.018 12.411 24.0783 12.2654 24.1857 12.158C24.2931 12.0506 24.4388 11.9903 24.5906 11.9902H28.0269C28.1788 11.9903 28.3244 12.0506 28.4318 12.158C28.5392 12.2654 28.5996 12.411 28.5996 12.5629V14.8537C28.5996 15.0056 28.5392 15.1513 28.4318 15.2587C28.3244 15.3661 28.1788 15.4265 28.0269 15.4265Z" fill="#FF5050"/>
<path d="M7.40939 21.153H3.97314C3.82126 21.153 3.6756 21.0926 3.56821 20.9852C3.46081 20.8778 3.40047 20.7322 3.40045 20.5803V18.2895C3.40047 18.1376 3.46081 17.9919 3.56821 17.8846C3.6756 17.7772 3.82126 17.7168 3.97314 17.7168H7.40939C7.56127 17.7168 7.70693 17.7772 7.81432 17.8846C7.92172 17.9919 7.98206 18.1376 7.98208 18.2895V20.5803C7.98214 20.8965 7.7257 21.153 7.40939 21.153ZM14.2819 21.153H10.8456C10.6938 21.153 10.5481 21.0926 10.4407 20.9852C10.3333 20.8778 10.273 20.7322 10.273 20.5803V18.2895C10.273 18.1376 10.3333 17.9919 10.4407 17.8846C10.5481 17.7772 10.6938 17.7168 10.8456 17.7168H14.2819C14.4338 17.7168 14.5794 17.7772 14.6868 17.8846C14.7942 17.9919 14.8546 18.1376 14.8546 18.2895V20.5803C14.8546 20.7322 14.7942 20.8778 14.6868 20.9852C14.5794 21.0926 14.4338 21.153 14.2819 21.153ZM21.1544 21.153H17.7181C17.5663 21.153 17.4206 21.0926 17.3132 20.9852C17.2058 20.8778 17.1455 20.7322 17.1455 20.5803V18.2895C17.1455 18.1376 17.2058 17.9919 17.3132 17.8846C17.4206 17.7772 17.5663 17.7168 17.7181 17.7168H21.1544C21.3063 17.7168 21.4519 17.7772 21.5593 17.8846C21.6667 17.9919 21.7271 18.1376 21.7271 18.2895V20.5803C21.7271 20.7322 21.6667 20.8778 21.5593 20.9852C21.4519 21.0926 21.3063 21.153 21.1544 21.153Z" fill="#C7CFE2"/>
<path d="M28.0269 21.153H24.5906C24.4388 21.153 24.2931 21.0926 24.1857 20.9852C24.0783 20.8778 24.018 20.7322 24.0179 20.5803V18.2895C24.018 18.1376 24.0783 17.9919 24.1857 17.8846C24.2931 17.7772 24.4388 17.7168 24.5906 17.7168H28.0269C28.1788 17.7168 28.3244 17.7772 28.4318 17.8846C28.5392 17.9919 28.5996 18.1376 28.5996 18.2895V20.5803C28.5996 20.7322 28.5392 20.8778 28.4318 20.9852C28.3244 21.0926 28.1788 21.153 28.0269 21.153Z" fill="#FF5050"/>
<path d="M7.40939 26.8815H3.97314C3.82126 26.8815 3.6756 26.8211 3.56821 26.7137C3.46081 26.6063 3.40047 26.4607 3.40045 26.3088V24.018C3.40047 23.8661 3.46081 23.7205 3.56821 23.6131C3.6756 23.5057 3.82126 23.4453 3.97314 23.4453H7.40939C7.56127 23.4453 7.70693 23.5057 7.81432 23.6131C7.92172 23.7205 7.98206 23.8661 7.98208 24.018V26.3088C7.98214 26.6251 7.7257 26.8815 7.40939 26.8815ZM14.2819 26.8815H10.8456C10.6938 26.8815 10.5481 26.8211 10.4407 26.7137C10.3333 26.6063 10.273 26.4607 10.273 26.3088V24.018C10.273 23.8661 10.3333 23.7205 10.4407 23.6131C10.5481 23.5057 10.6938 23.4453 10.8456 23.4453H14.2819C14.4338 23.4453 14.5794 23.5057 14.6868 23.6131C14.7942 23.7205 14.8546 23.8661 14.8546 24.018V26.3088C14.8546 26.4607 14.7942 26.6064 14.6868 26.7138C14.5794 26.8212 14.4338 26.8815 14.2819 26.8815ZM21.1544 26.8815H17.7181C17.5663 26.8815 17.4206 26.8211 17.3132 26.7137C17.2058 26.6063 17.1455 26.4607 17.1455 26.3088V24.018C17.1455 23.8661 17.2058 23.7205 17.3132 23.6131C17.4206 23.5057 17.5663 23.4453 17.7181 23.4453H21.1544C21.3063 23.4453 21.4519 23.5057 21.5593 23.6131C21.6667 23.7205 21.7271 23.8661 21.7271 24.018V26.3088C21.7271 26.4607 21.6667 26.6063 21.5593 26.7137C21.4519 26.8211 21.3063 26.8815 21.1544 26.8815Z" fill="#C7CFE2"/>
<path d="M28.0269 26.8815H24.5906C24.4388 26.8815 24.2931 26.8211 24.1857 26.7137C24.0783 26.6063 24.018 26.4607 24.0179 26.3088V24.018C24.018 23.8661 24.0783 23.7205 24.1857 23.6131C24.2931 23.5057 24.4388 23.4453 24.5906 23.4453H28.0269C28.1788 23.4453 28.3244 23.5057 28.4318 23.6131C28.5392 23.7205 28.5996 23.8661 28.5996 24.018V26.3088C28.5996 26.4607 28.5392 26.6063 28.4318 26.7137C28.3244 26.8211 28.1788 26.8815 28.0269 26.8815Z" fill="#FF5050"/>
<path d="M11.991 4.54583C11.3585 4.54583 10.8456 4.03295 10.8456 3.40039V5.11852C10.8456 5.75108 11.3585 6.26395 11.991 6.26395C12.6236 6.26395 13.1365 5.75108 13.1365 5.11852V3.40039C13.1364 4.03295 12.6236 4.54583 11.991 4.54583Z" fill="#AFB9D2"/>
<path d="M3.97314 6.26333C3.34051 6.26333 2.8277 5.75052 2.8277 5.11789V2.82708C2.8277 2.19445 3.34051 1.68164 3.97314 1.68164C4.60576 1.68164 5.11857 2.19445 5.11857 2.82708V5.11789C5.11857 5.75052 4.60576 6.26333 3.97314 6.26333Z" fill="#C7CFE2"/>
<path d="M3.97314 4.54583C3.34057 4.54583 2.8277 4.03295 2.8277 3.40039V5.11852C2.8277 5.75108 3.34057 6.26395 3.97314 6.26395C4.6057 6.26395 5.11857 5.75108 5.11857 5.11852V3.40039C5.11857 4.03295 4.6057 4.54583 3.97314 4.54583Z" fill="#AFB9D2"/>
<path d="M28.0269 6.26333C27.3943 6.26333 26.8814 5.75052 26.8814 5.11789V2.82708C26.8814 2.19445 27.3943 1.68164 28.0269 1.68164C28.6595 1.68164 29.1723 2.19445 29.1723 2.82708V5.11789C29.1723 5.75052 28.6595 6.26333 28.0269 6.26333Z" fill="#C7CFE2"/>
<path d="M28.0269 4.54583C27.3943 4.54583 26.8814 4.03295 26.8814 3.40039V5.11852C26.8814 5.75108 27.3943 6.26395 28.0269 6.26395C28.6594 6.26395 29.1723 5.75108 29.1723 5.11852V3.40039C29.1723 4.03295 28.6594 4.54583 28.0269 4.54583Z" fill="#AFB9D2"/>
<path d="M20.0089 6.26333C19.3763 6.26333 18.8635 5.75052 18.8635 5.11789V2.82708C18.8635 2.19445 19.3763 1.68164 20.0089 1.68164C20.6416 1.68164 21.1544 2.19445 21.1544 2.82708V5.11789C21.1544 5.75052 20.6416 6.26333 20.0089 6.26333Z" fill="#C7CFE2"/>
<path d="M20.0089 4.54583C19.3764 4.54583 18.8635 4.03295 18.8635 3.40039V5.11852C18.8635 5.75108 19.3764 6.26395 20.0089 6.26395C20.6415 6.26395 21.1544 5.75108 21.1544 5.11852V3.40039C21.1544 4.03295 20.6415 4.54583 20.0089 4.54583Z" fill="#AFB9D2"/>
<path d="M30.3177 3.43534H29.7092V2.82684C29.7092 1.89922 28.9545 1.14453 28.0269 1.14453C27.0992 1.14453 26.3446 1.89922 26.3446 2.82684V3.43534H21.6912V2.82684C21.6912 1.89922 20.9366 1.14453 20.0089 1.14453C19.0813 1.14453 18.3266 1.89922 18.3266 2.82684V3.43534H13.6734V2.82684C13.6734 1.89922 12.9187 1.14453 11.9911 1.14453C11.0634 1.14453 10.3088 1.89922 10.3088 2.82684V3.43534H5.6555V2.82684C5.6555 1.89922 4.90081 1.14453 3.97319 1.14453C3.04556 1.14453 2.29081 1.89922 2.29081 2.82684V3.43534H1.68231C0.754687 3.43534 0 4.19003 0 5.11766V29.1713C0 30.099 0.754687 30.8537 1.68231 30.8537H30.3177C31.2453 30.8537 32 30.099 32 29.1713V5.11766C32 4.19003 31.2453 3.43534 30.3177 3.43534ZM28.0269 2.21834C28.3624 2.21834 28.6354 2.49128 28.6354 2.82684V5.11766C28.6354 5.45322 28.3624 5.72616 28.0269 5.72616C27.6913 5.72616 27.4184 5.45322 27.4184 5.11766V3.97503L27.4185 3.97222L27.4184 3.96941V2.82684C27.4184 2.49128 27.6913 2.21834 28.0269 2.21834ZM19.4004 2.82684C19.4004 2.49128 19.6734 2.21834 20.0089 2.21834C20.3445 2.21834 20.6174 2.49128 20.6174 2.82684V5.11766C20.6174 5.45322 20.3445 5.72616 20.0089 5.72616C19.6734 5.72616 19.4004 5.45322 19.4004 5.11766V2.82684ZM11.3826 2.82684C11.3826 2.49128 11.6555 2.21834 11.9911 2.21834C12.3266 2.21834 12.5996 2.49128 12.5996 2.82684V5.11759C12.5996 5.45316 12.3266 5.72609 11.9911 5.72609C11.6555 5.72609 11.3826 5.45316 11.3826 5.11759V2.82684ZM3.36462 2.82684C3.36462 2.49128 3.63756 2.21834 3.97312 2.21834C4.30869 2.21834 4.58162 2.49128 4.58162 2.82684V5.11759C4.58162 5.45316 4.30869 5.72609 3.97312 5.72609C3.63756 5.72609 3.36462 5.45316 3.36462 5.11759V2.82684ZM30.3177 29.7798H1.68231C1.34675 29.7798 1.07381 29.5069 1.07381 29.1713V9.09084H1.68231C1.82472 9.09084 1.96129 9.03427 2.06198 8.93358C2.16268 8.83288 2.21925 8.69631 2.21925 8.55391C2.21925 8.4115 2.16268 8.27493 2.06198 8.17423C1.96129 8.07354 1.82472 8.01697 1.68231 8.01697H1.07381V5.11766C1.07381 4.78209 1.34675 4.50916 1.68231 4.50916H2.29081V5.11766C2.29081 6.04528 3.0455 6.79997 3.97312 6.79997C4.90075 6.79997 5.65544 6.04528 5.65544 5.11766V4.50916H10.3087V5.11766C10.3087 6.04528 11.0634 6.79997 11.991 6.79997C12.9186 6.79997 13.6733 6.04528 13.6733 5.11766V4.50916H18.3266V5.11766C18.3266 6.04528 19.0812 6.79997 20.0089 6.79997C20.9365 6.79997 21.6912 6.04528 21.6912 5.11766V4.50916H26.3444V5.11766C26.3444 6.04528 27.0991 6.79997 28.0268 6.79997C28.9544 6.79997 29.7091 6.04528 29.7091 5.11766V4.50916H30.3176C30.6531 4.50916 30.9261 4.78209 30.9261 5.11766V8.01697H29.1724C29.1019 8.01696 29.0321 8.03084 28.967 8.05782C28.9018 8.08481 28.8426 8.12436 28.7927 8.17422C28.7429 8.22408 28.7033 8.28327 28.6764 8.34842C28.6494 8.41357 28.6355 8.48339 28.6355 8.55391C28.6355 8.62442 28.6494 8.69425 28.6764 8.75939C28.7033 8.82454 28.7429 8.88374 28.7927 8.9336C28.8426 8.98346 28.9018 9.02301 28.967 9.04999C29.0321 9.07697 29.1019 9.09085 29.1724 9.09084H30.9261V29.1714C30.9262 29.5069 30.6532 29.7798 30.3177 29.7798Z" fill="black"/>
<path d="M25.736 9.09145H26.8812C26.9518 9.09146 27.0216 9.07758 27.0867 9.0506C27.1519 9.02362 27.2111 8.98407 27.2609 8.93421C27.3108 8.88435 27.3503 8.82515 27.3773 8.76C27.4043 8.69486 27.4182 8.62503 27.4182 8.55452C27.4182 8.484 27.4043 8.41418 27.3773 8.34903C27.3503 8.28388 27.3108 8.22469 27.2609 8.17483C27.2111 8.12496 27.1519 8.08541 27.0867 8.05843C27.0216 8.03145 26.9518 8.01757 26.8812 8.01758H25.736C25.595 8.01973 25.4605 8.07725 25.3616 8.17771C25.2626 8.27817 25.2072 8.41351 25.2072 8.55452C25.2072 8.69552 25.2626 8.83086 25.3616 8.93132C25.4605 9.03179 25.595 9.0893 25.736 9.09145ZM23.9821 8.55452C23.9821 8.484 23.9682 8.41418 23.9413 8.34903C23.9143 8.28388 23.8747 8.22469 23.8249 8.17483C23.775 8.12496 23.7158 8.08541 23.6507 8.05843C23.5855 8.03145 23.5157 8.01757 23.4452 8.01758H3.97312C3.83072 8.01758 3.69414 8.07415 3.59345 8.17484C3.49275 8.27554 3.43618 8.41211 3.43618 8.55452C3.43618 8.69692 3.49275 8.83349 3.59345 8.93419C3.69414 9.03488 3.83072 9.09145 3.97312 9.09145H23.4452C23.5876 9.09145 23.7242 9.03488 23.8249 8.93419C23.9255 8.83349 23.9821 8.69692 23.9821 8.55452ZM7.40937 11.4538H3.97312C3.36124 11.4538 2.86349 11.9516 2.86349 12.5635V14.8543C2.86349 15.4661 3.36124 15.9639 3.97312 15.9639H7.40937C8.02125 15.9639 8.51899 15.4661 8.51899 14.8543V12.5635C8.51899 11.9516 8.02125 11.4538 7.40937 11.4538ZM7.44518 14.8543C7.44517 14.8638 7.44139 14.8729 7.43467 14.8796C7.42796 14.8863 7.41886 14.8901 7.40937 14.8901H3.97312C3.96363 14.8901 3.95453 14.8863 3.94781 14.8796C3.9411 14.8729 3.93732 14.8638 3.93731 14.8543V12.5635C3.93731 12.5437 3.95337 12.5276 3.97312 12.5276H7.40937C7.42912 12.5276 7.44518 12.5437 7.44518 12.5635V14.8543ZM14.2819 11.4538H10.8456C10.2337 11.4538 9.73599 11.9516 9.73599 12.5635V14.8543C9.73599 15.4661 10.2337 15.9639 10.8456 15.9639H14.2819C14.8937 15.9639 15.3915 15.4661 15.3915 14.8543V12.5635C15.3915 11.9516 14.8937 11.4538 14.2819 11.4538ZM14.3177 14.8543C14.3177 14.8638 14.3139 14.8729 14.3072 14.8796C14.3005 14.8863 14.2914 14.8901 14.2819 14.8901H10.8456C10.8361 14.8901 10.827 14.8863 10.8203 14.8796C10.8136 14.8729 10.8098 14.8638 10.8098 14.8543V12.5635C10.8098 12.5437 10.8259 12.5276 10.8456 12.5276H14.2819C14.3016 12.5276 14.3177 12.5437 14.3177 12.5635V14.8543ZM21.1544 11.4538H17.7181C17.1062 11.4538 16.6085 11.9516 16.6085 12.5635V14.8543C16.6085 15.4661 17.1062 15.9639 17.7181 15.9639H21.1544C21.7662 15.9639 22.264 15.4661 22.264 14.8543V12.5635C22.264 11.9516 21.7662 11.4538 21.1544 11.4538ZM21.1902 14.8543C21.1902 14.8638 21.1864 14.8729 21.1797 14.8796C21.173 14.8863 21.1639 14.8901 21.1544 14.8901H17.7181C17.7086 14.8901 17.6995 14.8863 17.6928 14.8796C17.6861 14.8729 17.6823 14.8638 17.6823 14.8543V12.5635C17.6823 12.5437 17.6984 12.5276 17.7181 12.5276H21.1544C21.1741 12.5276 21.1902 12.5437 21.1902 12.5635V14.8543ZM28.0269 11.4538H24.5906C23.9787 11.4538 23.481 11.9516 23.481 12.5635V14.8543C23.481 15.4661 23.9787 15.9639 24.5906 15.9639H28.0269C28.6387 15.9639 29.1365 15.4661 29.1365 14.8543V12.5635C29.1364 11.9516 28.6387 11.4538 28.0269 11.4538ZM28.0626 14.8543C28.0626 14.8638 28.0588 14.8729 28.0521 14.8796C28.0454 14.8863 28.0363 14.8901 28.0268 14.8901H24.5906C24.5811 14.8901 24.572 14.8863 24.5653 14.8796C24.5585 14.8729 24.5548 14.8638 24.5547 14.8543V12.5635C24.5547 12.5437 24.5709 12.5276 24.5906 12.5276H28.0268C28.0465 12.5276 28.0626 12.5437 28.0626 12.5635V14.8543ZM7.40937 17.1809H3.97312C3.36124 17.1809 2.86349 17.6786 2.86349 18.2905V20.5813C2.86349 21.1932 3.36124 21.691 3.97312 21.691H7.40937C8.02125 21.691 8.51899 21.1932 8.51899 20.5813V18.2905C8.51899 17.6786 8.02125 17.1809 7.40937 17.1809ZM7.44518 20.5813C7.44517 20.5908 7.44139 20.5999 7.43467 20.6066C7.42796 20.6133 7.41886 20.6171 7.40937 20.6171H3.97312C3.96363 20.6171 3.95453 20.6133 3.94781 20.6066C3.9411 20.5999 3.93732 20.5908 3.93731 20.5813V18.2905C3.93731 18.2708 3.95337 18.2547 3.97312 18.2547H7.40937C7.42912 18.2547 7.44518 18.2708 7.44518 18.2905V20.5813ZM14.2819 17.1809H10.8456C10.2337 17.1809 9.73599 17.6786 9.73599 18.2905V20.5813C9.73599 21.1932 10.2337 21.691 10.8456 21.691H14.2819C14.8937 21.691 15.3915 21.1932 15.3915 20.5813V18.2905C15.3915 17.6786 14.8937 17.1809 14.2819 17.1809ZM14.3177 20.5813C14.3177 20.5908 14.3139 20.5999 14.3072 20.6066C14.3005 20.6133 14.2914 20.6171 14.2819 20.6171H10.8456C10.8361 20.6171 10.827 20.6133 10.8203 20.6066C10.8136 20.5999 10.8098 20.5908 10.8098 20.5813V18.2905C10.8098 18.2708 10.8259 18.2547 10.8456 18.2547H14.2819C14.3016 18.2547 14.3177 18.2708 14.3177 18.2905V20.5813ZM21.1544 17.1809H17.7181C17.1062 17.1809 16.6085 17.6786 16.6085 18.2905V20.5813C16.6085 21.1932 17.1062 21.691 17.7181 21.691H21.1544C21.7662 21.691 22.264 21.1932 22.264 20.5813V18.2905C22.264 17.6786 21.7662 17.1809 21.1544 17.1809ZM21.1902 20.5813C21.1902 20.5908 21.1864 20.5999 21.1797 20.6066C21.173 20.6133 21.1639 20.6171 21.1544 20.6171H17.7181C17.7086 20.6171 17.6995 20.6133 17.6928 20.6066C17.6861 20.5999 17.6823 20.5908 17.6823 20.5813V18.2905C17.6823 18.2708 17.6984 18.2547 17.7181 18.2547H21.1544C21.1741 18.2547 21.1902 18.2708 21.1902 18.2905V20.5813ZM28.0269 17.1809H24.5906C23.9787 17.1809 23.481 17.6786 23.481 18.2905V20.5813C23.481 21.1932 23.9787 21.691 24.5906 21.691H28.0269C28.6387 21.691 29.1365 21.1932 29.1365 20.5813V18.2905C29.1364 17.6786 28.6387 17.1809 28.0269 17.1809ZM28.0626 20.5813C28.0626 20.5908 28.0588 20.5999 28.0521 20.6066C28.0454 20.6133 28.0363 20.6171 28.0268 20.6171H24.5906C24.5811 20.6171 24.572 20.6133 24.5653 20.6066C24.5585 20.5999 24.5548 20.5908 24.5547 20.5813V18.2905C24.5547 18.2708 24.5709 18.2547 24.5906 18.2547H28.0268C28.0465 18.2547 28.0626 18.2708 28.0626 18.2905V20.5813ZM7.40937 22.908H3.97312C3.36124 22.908 2.86349 23.4057 2.86349 24.0176V26.3084C2.86349 26.9203 3.36124 27.418 3.97312 27.418H7.40937C8.02125 27.418 8.51899 26.9203 8.51899 26.3084V24.0176C8.51899 23.4058 8.02125 22.908 7.40937 22.908ZM7.44518 26.3085C7.44517 26.3179 7.44139 26.327 7.43467 26.3338C7.42796 26.3405 7.41886 26.3442 7.40937 26.3443H3.97312C3.96363 26.3442 3.95453 26.3405 3.94781 26.3338C3.9411 26.327 3.93732 26.3179 3.93731 26.3085V24.0176C3.93731 23.9979 3.95337 23.9818 3.97312 23.9818H7.40937C7.42912 23.9818 7.44518 23.9979 7.44518 24.0176V26.3085ZM14.2819 22.908H10.8456C10.2337 22.908 9.73599 23.4057 9.73599 24.0176V26.3084C9.73599 26.9203 10.2337 27.418 10.8456 27.418H14.2819C14.8937 27.418 15.3915 26.9203 15.3915 26.3084V24.0176C15.3915 23.4058 14.8937 22.908 14.2819 22.908ZM14.3177 26.3085C14.3177 26.3179 14.3139 26.327 14.3072 26.3338C14.3005 26.3405 14.2914 26.3442 14.2819 26.3443H10.8456C10.8361 26.3442 10.827 26.3405 10.8203 26.3338C10.8136 26.327 10.8098 26.3179 10.8098 26.3085V24.0176C10.8098 23.9979 10.8259 23.9818 10.8456 23.9818H14.2819C14.3016 23.9818 14.3177 23.9979 14.3177 24.0176V26.3085ZM21.1544 22.908H17.7181C17.1062 22.908 16.6085 23.4057 16.6085 24.0176V26.3084C16.6085 26.9203 17.1062 27.418 17.7181 27.418H21.1544C21.7662 27.418 22.264 26.9203 22.264 26.3084V24.0176C22.264 23.4058 21.7662 22.908 21.1544 22.908ZM21.1902 26.3085C21.1902 26.3179 21.1864 26.327 21.1797 26.3338C21.173 26.3405 21.1639 26.3442 21.1544 26.3443H17.7181C17.7086 26.3442 17.6995 26.3405 17.6928 26.3338C17.6861 26.327 17.6823 26.3179 17.6823 26.3085V24.0176C17.6823 23.9979 17.6984 23.9818 17.7181 23.9818H21.1544C21.1741 23.9818 21.1902 23.9979 21.1902 24.0176V26.3085ZM28.0269 22.908H24.5906C23.9787 22.908 23.481 23.4057 23.481 24.0176V26.3084C23.481 26.9203 23.9787 27.418 24.5906 27.418H28.0269C28.6387 27.418 29.1365 26.9203 29.1365 26.3084V24.0176C29.1364 23.4058 28.6387 22.908 28.0269 22.908ZM28.0626 26.3085C28.0626 26.3179 28.0588 26.327 28.0521 26.3338C28.0454 26.3405 28.0363 26.3442 28.0268 26.3443H24.5906C24.5811 26.3442 24.572 26.3405 24.5653 26.3338C24.5585 26.327 24.5548 26.3179 24.5547 26.3085V24.0176C24.5547 23.9979 24.5709 23.9818 24.5906 23.9818H28.0268C28.0465 23.9818 28.0626 23.9979 28.0626 24.0176V26.3085Z" fill="black"/>
</svg>
