<svg width="32" height="32" viewBox="0 0 32 32" fill="none" xmlns="http://www.w3.org/2000/svg">
<path fill-rule="evenodd" clip-rule="evenodd" d="M9.47195 19.516H7.11114C6.01282 19.877 3.87351 20.2613 2.89245 20.8365C2.08145 21.312 1.79245 21.7975 1.69314 23.0893C1.53639 25.9351 1.63989 28.5307 1.77676 31.302H14.1982V24.89C14.198 24.6597 14.2858 24.438 14.4438 24.2704C14.6017 24.1028 14.8177 24.0019 15.0476 23.9883C19.9996 23.6916 22.1756 20.8213 23.7204 17.5861C24.4813 15.9927 22.0209 14.7552 21.1689 16.2738C19.2964 19.6114 17.0187 21.2204 11.8328 19.516H9.47195Z" fill="#2A92FA"/>
<path fill-rule="evenodd" clip-rule="evenodd" d="M13.3429 19.93C12.7722 19.784 12.2333 19.6492 11.8328 19.5176H7.11114C6.71064 19.6492 6.1717 19.784 5.60101 19.93L5.8617 20.2874C6.71751 21.461 7.99539 22.2352 9.47195 22.2352C10.9485 22.2352 12.2263 21.461 13.0822 20.2874L13.3429 19.93Z" fill="#0062D9"/>
<path fill-rule="evenodd" clip-rule="evenodd" d="M12.1702 19.6212C11.5794 19.2982 11.0374 18.6679 11.0374 17.4618V17.2227H7.90655V17.4618C7.90655 18.6679 7.36462 19.2983 6.7738 19.6212C7.42393 20.5127 8.37099 21.1053 9.47199 21.1053C10.573 21.1053 11.5201 20.5127 12.1702 19.6212Z" fill="#F29988"/>
<path fill-rule="evenodd" clip-rule="evenodd" d="M7.90655 17.2227V17.4618C7.90655 18.6679 7.36462 19.2983 6.7738 19.6212C7.42393 20.5127 8.37099 21.1053 9.47199 21.1053C10.1718 21.1053 10.8094 20.8658 11.3482 20.4624C10.8099 20.0542 10.2247 19.2809 10.2247 18.2576V17.2227H7.90655Z" fill="#FDB0A0"/>
<path fill-rule="evenodd" clip-rule="evenodd" d="M9.472 18.6175C13.6821 18.3444 14.794 9.99219 9.472 9.99219C4.15 9.99219 5.26188 18.3444 9.472 18.6175Z" fill="#FDB0A0"/>
<path fill-rule="evenodd" clip-rule="evenodd" d="M9.47202 18.6175C9.64308 18.6061 9.81291 18.5807 9.97983 18.5416C12.1511 16.7096 12.6526 11.9182 10.4349 10.0958C10.1406 10.0288 9.82046 9.99219 9.47202 9.99219C4.15002 9.99219 5.26183 18.3445 9.47202 18.6175Z" fill="#FFCEC0"/>
<path fill-rule="evenodd" clip-rule="evenodd" d="M7.15913 10.2246C6.67857 10.0249 5.87951 10.2685 5.61245 11.349C5.45051 12.0038 5.52114 13.6317 5.92589 14.5108C6.36482 14.0393 6.45807 13.5147 6.74851 13.0747C6.97532 12.731 7.37564 12.8309 7.97614 13.0393C9.60901 13.606 11.2886 12.6642 12.1046 12.8109C12.7669 12.9299 12.9099 13.9299 13.018 14.5108C13.705 13.7445 13.7756 11.6087 13.2469 9.90978C10.4926 10.3348 8.25032 8.24897 7.15913 10.2246Z" fill="#1A1A1A"/>
<path d="M8.90759 21.1055H10.0364V31.3027H8.90759V21.1055Z" fill="#0062D9"/>
<path fill-rule="evenodd" clip-rule="evenodd" d="M5.31015 31.3038V24.246C5.31015 24.0963 5.25069 23.9528 5.14485 23.8469C5.039 23.7411 4.89545 23.6816 4.74577 23.6816C4.59609 23.6816 4.45254 23.7411 4.3467 23.8469C4.24086 23.9528 4.1814 24.0963 4.1814 24.246V31.3038H5.31015Z" fill="#0062D9"/>
<path fill-rule="evenodd" clip-rule="evenodd" d="M19.8913 12.9397C19.8913 13.4327 20.2947 13.8362 20.7877 13.8362H24.0885C24.5816 13.8362 24.985 13.4328 24.985 12.9397V11.7089C24.985 9.24167 27.5319 8.54867 27.5319 5.23305C27.5319 2.19092 24.985 0.669922 22.4381 0.669922C19.8912 0.669922 17.3444 2.19098 17.3444 5.23305C17.3444 8.54861 19.8912 9.24173 19.8912 11.7089L19.8913 12.9397Z" fill="#FCDB35"/>
<path fill-rule="evenodd" clip-rule="evenodd" d="M19.8913 12.9397C19.8913 13.4326 20.2947 13.8361 20.7877 13.8361H23.0763C23.5693 13.8361 23.9727 13.4327 23.9727 12.9397V11.4775C23.9727 9.0103 26.5196 8.3173 26.5196 5.00167C26.5196 2.73011 25.0994 1.3068 23.3196 0.731484C23.0276 0.690513 22.7331 0.669943 22.4382 0.669922C19.8913 0.669922 17.3444 2.19092 17.3444 5.23305C17.3444 8.54867 19.8913 9.24173 19.8913 11.7089V12.9397Z" fill="#FFEB87"/>
<path fill-rule="evenodd" clip-rule="evenodd" d="M23.8015 13.207V14.7868C23.8015 15.1643 23.4923 15.4735 23.1148 15.4735H21.7614C21.3839 15.4735 21.0748 15.1645 21.0748 14.7868V13.207H23.8015Z" fill="#495586"/>
<path fill-rule="evenodd" clip-rule="evenodd" d="M22.0666 15.4735H21.7614C21.384 15.4735 21.0748 15.1645 21.0748 14.7868V13.207H22.7532V14.7868C22.7532 15.1643 22.4441 15.4735 22.0666 15.4735Z" fill="#5D689E"/>
<path fill-rule="evenodd" clip-rule="evenodd" d="M24.987 12.9399C24.987 13.4332 24.5832 13.837 24.0898 13.837H20.7865C20.2931 13.837 19.8893 13.4332 19.8893 12.9399V12.0605H24.987V12.9399Z" fill="#5D689E"/>
<path fill-rule="evenodd" clip-rule="evenodd" d="M23.0755 13.837H20.7865C20.2931 13.837 19.8893 13.4332 19.8893 12.9399V12.0605H23.9727V12.8499C23.9727 13.3927 23.5689 13.837 23.0755 13.837Z" fill="#7986BF"/>
<path fill-rule="evenodd" clip-rule="evenodd" d="M27.9382 24.8928L26.8322 24.6748L26.3465 23.5039L26.9748 22.567L25.6797 21.272L24.7429 21.9002L23.572 21.4145L23.3539 20.3086H21.5224L21.3044 21.4145L20.1334 21.9002L19.1966 21.272L17.9015 22.567L18.5298 23.5039L18.0441 24.6748L16.9381 24.8928V26.7243L18.0441 26.9424L18.5298 28.1133L17.9015 29.0502L19.1966 30.3452L20.1334 29.7169L21.3044 30.2026L21.5224 31.3086H23.3539L23.572 30.2026L24.7429 29.7169L25.6797 30.3452L26.9748 29.0502L26.3465 28.1133L26.8322 26.9424L27.9382 26.7243V24.8928Z" fill="#F9AC00"/>
<path fill-rule="evenodd" clip-rule="evenodd" d="M27.4035 26.7243L26.2975 26.9424L25.8119 28.1133L26.4402 29.0502L25.3597 30.1306L24.5385 29.5799L23.0374 30.2026L22.8192 31.3086H21.5224L21.3044 30.2026L19.8031 29.5799L18.982 30.1306L17.9015 29.0502L18.5298 28.1133L18.0441 26.9424L16.9381 26.7243V24.8928L18.0441 24.6748L18.5298 23.5039L17.9015 22.567L18.982 21.4866L19.8031 22.0373L21.3044 21.4145L21.5224 20.3086H22.8192L23.0374 21.4145L24.5385 22.0373L25.3597 21.4866L26.4402 22.567L25.8119 23.5039L26.2975 24.6748L27.4035 24.8928V26.7243Z" fill="#FDC72E"/>
<path d="M23.9866 27.8073C25.0915 26.7024 25.0915 24.9109 23.9866 23.806C22.8816 22.7011 21.0902 22.7011 19.9853 23.806C18.8804 24.9109 18.8804 26.7024 19.9853 27.8073C21.0902 28.9122 22.8816 28.9122 23.9866 27.8073Z" fill="#F9AC00"/>
<path d="M23.0892 28.5369C24.6035 28.1778 25.54 26.659 25.1809 25.1447C24.8218 23.6304 23.3031 22.6938 21.7888 23.0529C20.2744 23.412 19.3379 24.9307 19.697 26.4451C20.0561 27.9594 21.5748 28.896 23.0892 28.5369Z" fill="#F3F3FF"/>
<path fill-rule="evenodd" clip-rule="evenodd" d="M14.0535 5.43113C14.0535 5.37365 14.0648 5.31673 14.0868 5.26362C14.1088 5.21052 14.141 5.16227 14.1817 5.12164C14.2223 5.081 14.2706 5.04877 14.3237 5.0268C14.3768 5.00482 14.4337 4.99353 14.4912 4.99356H15.6643C15.9059 4.99356 16.1017 5.18931 16.1017 5.43113C16.1017 5.67294 15.9059 5.86863 15.6643 5.86863H14.4912C14.4337 5.86867 14.3768 5.85738 14.3237 5.83541C14.2706 5.81344 14.2223 5.78122 14.1817 5.74059C14.141 5.69996 14.1088 5.65172 14.0868 5.59862C14.0648 5.54552 14.0535 5.4886 14.0535 5.43113ZM29.6318 9.87669C29.5935 9.94332 29.5382 9.99864 29.4716 10.0371C29.405 10.0755 29.3294 10.0956 29.2525 10.0955C29.1759 10.0957 29.1006 10.0754 29.0345 10.0368L28.0183 9.45056C27.8087 9.32994 27.737 9.06175 27.8584 8.85312C27.8871 8.80334 27.9253 8.75969 27.9708 8.72467C28.0163 8.68965 28.0683 8.66394 28.1238 8.64903C28.1793 8.63411 28.2372 8.63027 28.2941 8.63773C28.3511 8.64519 28.406 8.6638 28.4558 8.6925L29.4713 9.27931C29.5211 9.30798 29.5647 9.34618 29.5997 9.39172C29.6348 9.43727 29.6605 9.48927 29.6754 9.54476C29.6903 9.60024 29.6941 9.65812 29.6866 9.71509C29.6792 9.77205 29.6606 9.82699 29.6318 9.87675V9.87669ZM30.8233 5.43113C30.8233 5.67294 30.6268 5.86863 30.3856 5.86863H29.2125C28.9707 5.86863 28.7751 5.67294 28.7751 5.43113C28.7751 5.18931 28.9706 4.99356 29.2125 4.99356H30.3856C30.5016 4.9936 30.6129 5.0397 30.695 5.12175C30.7771 5.2038 30.8232 5.31507 30.8233 5.43113ZM15.2449 0.985625C15.3654 0.77625 15.6332 0.704875 15.8423 0.825688L16.8584 1.41194C17.0675 1.53244 17.1395 1.8005 17.0183 2.00931C16.98 2.07596 16.9247 2.1313 16.8581 2.16973C16.7916 2.20815 16.716 2.2283 16.6391 2.22813C16.5625 2.22814 16.4872 2.2081 16.4207 2.17L15.4048 1.58312C15.3551 1.55447 15.3114 1.51626 15.2764 1.4707C15.2414 1.42514 15.2157 1.37313 15.2009 1.31763C15.186 1.26214 15.1823 1.20426 15.1898 1.1473C15.1974 1.09035 15.2161 1.03545 15.2449 0.98575V0.985625ZM16.4207 8.69244C16.5213 8.6345 16.6407 8.61887 16.7528 8.64899C16.8649 8.67911 16.9604 8.75252 17.0184 8.85306C17.1395 9.06169 17.0675 9.32987 16.8585 9.4505L15.8423 10.0367C15.7761 10.0753 15.7008 10.0956 15.6242 10.0954C15.5473 10.0956 15.4717 10.0755 15.405 10.037C15.3384 9.99862 15.2831 9.94328 15.2447 9.87662C15.2159 9.82688 15.1973 9.77196 15.1898 9.71501C15.1823 9.65805 15.1861 9.60018 15.2009 9.54469C15.2158 9.4892 15.2415 9.43719 15.2765 9.39164C15.3115 9.34608 15.3551 9.30787 15.4049 9.27919L16.4207 8.69237V8.69244ZM27.8584 2.00925C27.737 1.8005 27.8087 1.53237 28.0183 1.41188L29.0338 0.825625C29.1344 0.767561 29.2538 0.751792 29.366 0.781784C29.4781 0.811776 29.5737 0.885074 29.6318 0.985563C29.6606 1.03532 29.6792 1.09025 29.6867 1.14721C29.6941 1.20418 29.6903 1.26205 29.6754 1.31753C29.6605 1.37301 29.6348 1.42501 29.5998 1.47055C29.5647 1.51609 29.5211 1.55428 29.4713 1.58294L28.4558 2.16981C28.3892 2.20798 28.3138 2.22803 28.2371 2.22794C28.1603 2.22809 28.0848 2.20793 28.0183 2.1695C27.9518 2.13107 27.8966 2.07574 27.8584 2.00912V2.00925ZM22.4383 28.1974C21.1257 28.1974 20.0575 27.1292 20.0575 25.8167C20.0575 24.5042 21.1257 23.4362 22.4383 23.4362C23.7508 23.4362 24.8188 24.5043 24.8188 25.8167C24.8188 27.1292 23.7508 28.1974 22.4383 28.1974ZM22.4383 22.5611C20.6434 22.5611 19.1827 24.0217 19.1827 25.8167C19.1827 27.6118 20.6434 29.0724 22.4383 29.0724C24.2332 29.0724 25.6939 27.6118 25.6939 25.8167C25.6939 24.0217 24.2331 22.5611 22.4383 22.5611ZM27.4963 26.3717V25.2611L26.7438 25.1131C26.6732 25.0992 26.6071 25.0681 26.5514 25.0226C26.4956 24.977 26.4521 24.9184 26.4245 24.8519L25.9395 23.6818C25.9117 23.6152 25.9009 23.5428 25.908 23.4711C25.9151 23.3993 25.9399 23.3304 25.9802 23.2706L26.4076 22.6331L25.622 21.8475L24.9845 22.2751C24.9247 22.3153 24.8558 22.3401 24.7841 22.3473C24.7124 22.3544 24.64 22.3438 24.5733 22.3162L23.4033 21.8306C23.3368 21.8031 23.2782 21.7595 23.2326 21.7038C23.187 21.6481 23.1559 21.582 23.1421 21.5114L22.9938 20.7589H21.8834L21.7346 21.5114C21.7207 21.582 21.6896 21.6481 21.644 21.7037C21.5985 21.7594 21.5399 21.803 21.4734 21.8306L20.3033 22.3162C20.2367 22.3438 20.1643 22.3545 20.0926 22.3473C20.0208 22.3401 19.952 22.3153 19.8922 22.2751L19.2547 21.8475L18.4697 22.6331L18.8965 23.2706C18.9367 23.3304 18.9615 23.3993 18.9687 23.471C18.9759 23.5428 18.9653 23.6152 18.9378 23.6818L18.4522 24.8519C18.4246 24.9184 18.381 24.977 18.3253 25.0226C18.2696 25.0681 18.2035 25.0992 18.1328 25.1131L17.3809 25.2611V26.3717L18.1328 26.5205C18.2035 26.5344 18.2696 26.5655 18.3253 26.611C18.381 26.6566 18.4246 26.7152 18.4522 26.7817L18.9378 27.9517C18.9653 28.0184 18.9759 28.0908 18.9687 28.1626C18.9615 28.2343 18.9367 28.3032 18.8965 28.3631L18.4697 29.0005L19.2547 29.7855L19.8922 29.3586C19.952 29.3184 20.0209 29.2936 20.0926 29.2864C20.1643 29.2793 20.2367 29.2899 20.3033 29.3174L21.4734 29.803C21.5399 29.8305 21.5986 29.8741 21.6442 29.9298C21.6898 29.9856 21.7208 30.0517 21.7346 30.1224L21.8834 30.8742H22.9938L23.1421 30.1224C23.1558 30.0517 23.1868 29.9855 23.2324 29.9298C23.278 29.874 23.3367 29.8305 23.4033 29.803L24.5733 29.3174C24.64 29.2898 24.7124 29.2792 24.7841 29.2864C24.8558 29.2936 24.9247 29.3184 24.9845 29.3586L25.622 29.7855L26.4076 29.0005L25.9802 28.3631C25.9399 28.3032 25.9151 28.2343 25.908 28.1625C25.9009 28.0907 25.9117 28.0183 25.9395 27.9517L26.4245 26.7817C26.4521 26.7152 26.4956 26.6566 26.5513 26.611C26.6071 26.5655 26.6732 26.5344 26.7438 26.5205L27.4963 26.3717ZM15.0136 23.5662C15.9893 23.5074 16.8931 23.3399 17.7077 23.0687L17.542 22.8218C17.4856 22.7376 17.4602 22.6364 17.4701 22.5356C17.4799 22.4347 17.5246 22.3404 17.5963 22.2687L18.8902 20.9749C18.9618 20.9031 19.0561 20.8585 19.157 20.8486C19.2579 20.8387 19.3591 20.8641 19.4433 20.9205L20.1847 21.4181L20.9215 21.1119L21.0938 20.2368C21.1136 20.1374 21.1672 20.0478 21.2455 19.9835C21.3238 19.9191 21.422 19.8838 21.5234 19.8837H21.8927C22.3841 19.1981 22.839 18.4081 23.3119 17.4155C23.5939 16.8256 23.2378 16.3794 22.8471 16.1768C22.5238 16.0092 21.8846 15.8899 21.539 16.5068C20.4587 18.4318 19.3688 19.5593 18.005 20.1618C17.2633 20.4899 16.4319 20.6543 15.4986 20.6543C14.5493 20.6543 13.4944 20.4837 12.3219 20.1443C11.6628 20.9343 10.8241 21.4156 9.90497 21.5311V30.8743L13.7532 30.8749V24.9036C13.7532 24.1956 14.3068 23.608 15.0136 23.5662ZM2.12991 23.133C2.22178 21.9449 2.45647 21.6154 3.11322 21.2298C3.71453 20.878 4.85234 20.5874 5.85672 20.3306C6.11941 20.2636 6.37153 20.1992 6.60591 20.1361C7.26622 20.9311 8.10734 21.4149 9.03009 21.5311V30.8743H5.19184V24.3729C5.19184 24.1317 4.99603 23.9354 4.75441 23.9354C4.51278 23.9354 4.31697 24.1317 4.31697 24.3729V30.8743H2.19347C2.06666 28.2449 1.98228 25.8173 2.12991 23.133ZM9.43916 19.0704C9.44853 19.0711 9.45816 19.0711 9.46747 19.0711C9.47678 19.0711 9.48616 19.0711 9.49578 19.0704C9.95244 19.0415 10.3993 18.9251 10.812 18.7274C10.9686 19.1243 11.2084 19.4618 11.5244 19.7281C10.9496 20.3474 10.2323 20.6838 9.46747 20.6838C8.70259 20.6838 7.98528 20.3474 7.41053 19.7281C7.72628 19.4618 7.96634 19.1243 8.12303 18.7274C8.5357 18.9251 8.98255 19.0416 9.43922 19.0704H9.43916ZM6.38384 14.663C6.61097 14.3742 6.74416 14.0811 6.86316 13.8174C6.94209 13.6424 7.01709 13.4768 7.11078 13.3349C7.12041 13.3205 7.12709 13.3136 7.12884 13.313C7.17191 13.2892 7.32828 13.2979 7.82897 13.4717C8.97041 13.8679 10.1257 13.6048 10.9695 13.4123C11.3988 13.3143 11.8046 13.2218 12.0209 13.2611C12.3463 13.3192 12.4863 14.0899 12.5617 14.5036L12.5686 14.5399C12.3475 16.2217 11.2925 18.0587 9.46753 18.1955C7.68684 18.0623 6.63909 16.3098 6.38391 14.6629L6.38384 14.663ZM6.03497 11.4743C5.93647 11.8724 5.93947 12.7137 6.06747 13.4536C6.15666 13.2562 6.24916 13.0517 6.38047 12.853C6.81516 12.1936 7.56709 12.4549 8.11597 12.6456C9.02034 12.9593 9.95241 12.7468 10.7748 12.5593C11.3162 12.4361 11.7837 12.3292 12.1756 12.3999C12.6245 12.4806 12.9031 12.7862 13.0848 13.1549C13.2023 12.3968 13.1694 11.3881 12.9203 10.4086C11.8623 10.4955 10.9079 10.2686 10.0551 10.0662C8.68166 9.73987 8.00116 9.62056 7.53872 10.4567C7.4869 10.5512 7.40197 10.6231 7.3003 10.6586C7.19862 10.6942 7.08739 10.6908 6.98803 10.6493C6.93891 10.6292 6.88378 10.6192 6.82622 10.6192C6.73978 10.6192 6.64728 10.6417 6.55991 10.6855C6.31678 10.8086 6.13034 11.0886 6.03484 11.4742L6.03497 11.4743ZM20.33 12.9423V12.5011H24.5463V12.9423C24.5463 13.1949 24.3405 13.4006 24.088 13.4006H20.7887C20.5353 13.4006 20.3299 13.1949 20.3299 12.9423H20.33ZM21.1 7.22169C20.7743 7.02119 20.4875 6.72919 20.298 6.32431C19.9793 5.63931 20.0968 5.28994 20.1562 5.25806C20.1585 5.25704 20.1611 5.25659 20.1637 5.25675C20.1845 5.25675 20.2393 5.26806 20.3224 5.32806C20.6207 5.5455 20.9575 6.15744 21.0999 7.22169H21.1ZM22.8319 11.6261H22.0444V8.44362C22.3026 8.47175 22.5737 8.47175 22.8319 8.44362V11.6261ZM23.7763 7.22169C23.9188 6.15744 24.2557 5.5455 24.5539 5.32806C24.637 5.26731 24.6925 5.25675 24.7127 5.25675C24.7157 5.25675 24.7181 5.25731 24.7193 5.25731C24.7802 5.28994 24.8976 5.63931 24.5783 6.32431C24.3888 6.72925 24.102 7.02119 23.7763 7.22169ZM19.1157 8.74419C19.6974 9.55675 20.2987 10.3961 20.3288 11.6261H21.1693V8.34175C21.1693 8.30487 21.1693 8.268 21.1687 8.23175C20.4339 7.94481 19.838 7.408 19.5057 6.69431C19.1099 5.84681 19.1138 5.08744 19.5145 4.66237C19.7781 4.383 20.1637 4.30619 20.5457 4.45806C21.187 4.71294 21.8675 5.65994 22.0148 7.55556C22.16 7.57925 22.3025 7.58994 22.4381 7.58994C22.5737 7.58994 22.7162 7.57925 22.861 7.55556C23.0087 5.65994 23.6895 4.71294 24.3305 4.45806C24.7125 4.30613 25.0981 4.383 25.3617 4.66237C25.7624 5.08744 25.766 5.84681 25.3705 6.69431C25.0382 7.408 24.4426 7.94481 23.7075 8.23175C23.7067 8.268 23.7067 8.30494 23.7067 8.34175V11.6261H24.5481C24.5776 10.3961 25.1786 9.55675 25.7607 8.74487C26.415 7.83112 27.0919 6.88675 27.0919 5.248C27.0919 2.41481 24.6795 1.12475 22.4382 1.12475C20.1968 1.12475 17.7844 2.41481 17.7844 5.248C17.7844 6.88675 18.4613 7.83112 19.1157 8.74419ZM21.5137 14.2755H23.3625V14.788C23.3625 14.9224 23.2489 15.0362 23.1145 15.0362H21.7625C21.6276 15.0362 21.5137 14.9224 21.5137 14.788V14.2755H21.5137ZM28.0183 24.4724L27.1432 24.2999L26.8371 23.5631L27.3345 22.8218C27.3909 22.7376 27.4163 22.6364 27.4064 22.5355C27.3964 22.4346 27.3518 22.3403 27.28 22.2687L25.9864 20.9749C25.9148 20.9031 25.8205 20.8585 25.7196 20.8486C25.6187 20.8387 25.5175 20.8641 25.4333 20.9205L24.6919 21.4181L23.955 21.1119L23.7827 20.2368C23.763 20.1374 23.7094 20.0478 23.6311 19.9834C23.5528 19.9191 23.4545 19.8838 23.3532 19.8837H22.9513C23.3426 19.2793 23.7177 18.5981 24.1021 17.7931C24.4877 16.9856 24.2307 16.2231 23.7177 15.7337C24.0295 15.5344 24.2376 15.185 24.2376 14.7881V14.2669C24.9028 14.1925 25.4212 13.6268 25.4212 12.9424V11.7212C25.4212 10.7199 25.908 10.0406 26.472 9.25431C27.1727 8.27687 27.9668 7.16813 27.9668 5.24813C27.9668 3.70125 27.36 2.4 26.2114 1.48575C25.2107 0.688625 23.8707 0.25 22.4382 0.25C21.0058 0.25 19.6658 0.688625 18.665 1.48575C17.5163 2.4 16.9093 3.70125 16.9093 5.24813C16.9093 7.16813 17.7038 8.27687 18.4045 9.25431C18.9682 10.0406 19.455 10.7199 19.455 11.7212V12.9424C19.455 13.6269 19.974 14.1925 20.6389 14.2669V14.7881C20.6389 15.1487 20.8107 15.4692 21.0757 15.6749C20.9645 15.7887 20.8633 15.9224 20.7757 16.0787C19.082 19.0974 17.0784 20.68 12.349 19.2393C11.9625 19.0199 11.7017 18.6856 11.5703 18.243C11.8095 18.048 12.0345 17.8218 12.2418 17.5624C12.8603 16.7886 13.2784 15.7793 13.4284 14.7087C14.1975 13.6824 14.1568 11.4043 13.6577 9.80119C13.6266 9.70107 13.5606 9.61545 13.4716 9.55991C13.3827 9.50438 13.2768 9.48263 13.1732 9.49862C12.1294 9.65981 11.135 9.42369 10.2574 9.21487C9.03341 8.92425 7.77059 8.62425 6.95297 9.74981C6.69147 9.72487 6.41853 9.77737 6.16609 9.90419C5.69128 10.1441 5.34309 10.6267 5.18553 11.2642C5.01559 11.9517 5.05778 13.6279 5.49822 14.6486C5.64072 15.7417 6.06303 16.7736 6.69328 17.5623C6.90022 17.8217 7.12528 18.0478 7.36478 18.2429C7.23522 18.6785 6.98041 19.0092 6.60441 19.2285C6.31759 19.3098 5.98834 19.3942 5.64041 19.4829C4.57997 19.7535 3.37828 20.0604 2.67066 20.4754C1.70816 21.0398 1.36472 21.6704 1.25716 23.0704C1.25684 23.0735 1.25653 23.0767 1.25653 23.0798C1.09834 25.9497 1.20078 28.5154 1.33997 31.3336C1.34558 31.4456 1.39405 31.5513 1.47535 31.6286C1.55664 31.706 1.66456 31.7492 1.77678 31.7492L14.1908 31.7498C14.3068 31.7498 14.4179 31.7036 14.5002 31.6216C14.582 31.5394 14.628 31.4282 14.6282 31.3123V24.9035C14.6282 24.6579 14.8204 24.4542 15.0657 24.4391C16.0797 24.3785 17.0253 24.2072 17.8869 23.9298L17.7338 24.2998L16.8581 24.4723C16.7587 24.4921 16.6693 24.5456 16.6049 24.6239C16.5406 24.7022 16.5054 24.8004 16.5053 24.9017V26.7317C16.5054 26.833 16.5406 26.9311 16.605 27.0094C16.6693 27.0877 16.7587 27.1413 16.8581 27.161L17.7338 27.3335L18.0396 28.0704L17.5419 28.8116C17.4855 28.8958 17.46 28.997 17.4699 29.0979C17.4798 29.1988 17.5244 29.2931 17.5962 29.3647L18.89 30.6586C18.9617 30.7303 19.056 30.7749 19.1569 30.7848C19.2577 30.7947 19.3589 30.7693 19.4432 30.7129L20.1845 30.2154L20.9214 30.521L21.0937 31.3966C21.1135 31.496 21.1671 31.5855 21.2454 31.6497C21.3238 31.714 21.422 31.7492 21.5233 31.7492H23.3531C23.4544 31.7492 23.5526 31.714 23.6309 31.6498C23.7093 31.5855 23.7629 31.496 23.7827 31.3966L23.955 30.521L24.6918 30.2154L25.4332 30.7129C25.5175 30.7693 25.6186 30.7947 25.7195 30.7848C25.8204 30.7749 25.9147 30.7303 25.9863 30.6586L27.2799 29.3647C27.3517 29.2931 27.3964 29.1988 27.4064 29.0979C27.4163 28.997 27.3909 28.8958 27.3344 28.8116L26.837 28.0704L27.1431 27.3335L28.0182 27.161C28.1176 27.1413 28.2071 27.0877 28.2715 27.0095C28.3359 26.9312 28.3711 26.833 28.3713 26.7317V24.9017C28.3712 24.8003 28.3359 24.7022 28.2715 24.6239C28.2072 24.5456 28.1176 24.492 28.0182 24.4723L28.0183 24.4724Z" fill="black"/>
</svg>
