<svg width="32" height="32" viewBox="0 0 32 32" fill="none" xmlns="http://www.w3.org/2000/svg">
<path d="M27.1959 15.7457C25.2804 15.7457 23.7275 14.1929 23.7275 12.2774V10.0201C23.7275 8.24425 25.1671 6.80469 26.9429 6.80469H27.4489C29.2247 6.80469 30.6642 8.24425 30.6642 10.0201V12.2774C30.6642 14.1929 29.1114 15.7457 27.1959 15.7457Z" fill="#FCD0AE"/>
<path d="M28.5733 17.4434H25.8183C23.9258 17.4434 22.3917 18.9775 22.3917 20.87V24.1834C22.3917 24.2543 22.4198 24.3222 22.47 24.3724C22.5201 24.4225 22.5881 24.4507 22.659 24.4507H31.7327C31.8036 24.4507 31.8715 24.4225 31.9217 24.3724C31.9718 24.3222 32 24.2543 32 24.1834V20.87C32 18.9775 30.4658 17.4434 28.5733 17.4434Z" fill="#EBEEF2"/>
<path d="M27.4488 6.80469H26.9429C25.1671 6.80469 23.7275 8.24425 23.7275 10.0201V10.635C25.3283 11.1091 27.8173 10.3146 28.5155 9.31069C28.767 10.0859 29.8258 10.5807 30.6642 10.8064V10.0201C30.6642 8.24425 29.2246 6.80469 27.4488 6.80469Z" fill="#FCAB29"/>
<path d="M27.6351 17.4434H26.7565L25.8762 21.162L27.1958 22.5507L28.5155 21.162L27.6351 17.4434Z" fill="#ED5575"/>
<path d="M4.80413 15.7457C2.88863 15.7457 1.33582 14.1929 1.33582 12.2774V10.0201C1.33582 8.24425 2.77538 6.80469 4.55119 6.80469H5.05713C6.83294 6.80469 8.2725 8.24425 8.2725 10.0201V12.2774C8.27244 14.1929 6.71963 15.7457 4.80413 15.7457Z" fill="#FCD0AE"/>
<path d="M6.18156 17.4434H3.42669C1.53419 17.4434 0 18.9775 0 20.87V24.1834C0 24.2543 0.0281632 24.3222 0.078294 24.3724C0.128425 24.4225 0.196417 24.4507 0.267312 24.4507H9.341C9.4119 24.4507 9.47989 24.4225 9.53002 24.3724C9.58015 24.3222 9.60831 24.2543 9.60831 24.1834V20.87C9.60825 18.9775 8.07406 17.4434 6.18156 17.4434Z" fill="#EBEEF2"/>
<path d="M5.24343 17.4434H4.36487L3.4845 21.162L4.80412 22.5507L6.12375 21.162L5.24343 17.4434Z" fill="#ED5575"/>
<path d="M17.9298 17.9375H14.0702C13.3502 17.9375 12.6672 17.971 12.0542 18.255C10.41 19.0169 9.26941 20.6818 9.26941 22.6132V26.9857C9.26941 27.3413 9.55766 27.6296 9.91328 27.6296H22.0866C22.4422 27.6296 22.7305 27.3413 22.7305 26.9857V22.6132C22.7305 20.6855 21.5943 19.0232 19.9552 18.2594C19.3398 17.9726 18.6535 17.9375 17.9298 17.9375Z" fill="#656D88"/>
<path d="M17.9297 17.9375H16.9563C17.9524 17.9375 18.8687 18.1976 19.5943 18.8428C20.5829 19.722 21.2174 21.0841 21.2174 22.6132V26.9857C21.2174 27.3412 20.9615 27.6296 20.6459 27.6296H22.0866C22.4422 27.6296 22.7305 27.3412 22.7305 26.9857V22.6132C22.7305 20.6855 21.5944 19.0232 19.9552 18.2594C19.3398 17.9726 18.6535 17.9375 17.9297 17.9375Z" fill="#444966"/>
<path d="M16 25.4574L19.9452 18.2561C19.3137 17.9633 18.6258 17.8119 17.9297 17.8125H14.0701C13.374 17.8119 12.6862 17.9633 12.0547 18.2561L16 25.4574Z" fill="#EBEEF2"/>
<path d="M16.7012 19.5798C17.4041 19.3006 17.9013 18.6148 17.9013 17.8125H14.0987C14.0987 18.6148 14.5959 19.3006 15.2988 19.5798L14.6707 23.0309L16 25.4575L17.3294 23.031L16.7012 19.5798Z" fill="#ED5575"/>
<path d="M15.9857 15.9366C13.4952 15.9366 11.4763 13.9177 11.4763 11.4273V8.52445C11.4763 6.22952 13.3367 4.36914 15.6316 4.36914H16.3398C18.6348 4.36914 20.4951 6.22952 20.4951 8.52445V11.4273C20.4951 13.9177 18.4761 15.9366 15.9857 15.9366Z" fill="#FCD0AE"/>
<path d="M16.3398 4.36914H15.6316C15.6057 4.36914 15.5802 4.37064 15.5544 4.37108C17.4066 4.41227 18.8956 5.92545 18.8956 7.78752V12.2269C18.8956 14.1459 17.4385 15.7245 15.5703 15.9168C15.7071 15.9293 15.8455 15.9366 15.9856 15.9366C18.4761 15.9366 20.495 13.9176 20.495 11.4272V8.52439C20.4951 6.22952 18.6347 4.36914 16.3398 4.36914Z" fill="#E59F6A"/>
<path d="M16.3398 4.36914H15.6316C13.3579 4.36914 11.5119 6.19558 11.4779 8.46114C12.247 9.3162 13.396 10.0375 14.2616 10.2619C14.0362 9.8112 13.5678 8.73314 13.8109 7.71864C14.5647 8.73239 18.0465 10.4037 20.4951 11.01V8.52445C20.4951 6.22952 18.6347 4.36914 16.3398 4.36914Z" fill="#444966"/>
<path d="M16.3398 4.36914H15.6316C15.6057 4.36914 15.5802 4.37064 15.5544 4.37108C17.4066 4.41227 18.8956 5.92545 18.8956 7.78752V10.5191C19.4505 10.7175 19.9944 10.886 20.4951 11.01V8.52445C20.4951 6.22952 18.6347 4.36914 16.3398 4.36914Z" fill="#2E344C"/>
<path d="M1.33582 10.0193H6.76532C8.30957 10.0193 9.56138 8.76747 9.56138 7.22322V6.09766H4.12775C2.58582 6.09766 1.33582 7.34766 1.33582 8.88959V10.0193Z" fill="#FCAB29"/>
</svg>
