<svg width="32" height="32" viewBox="0 0 32 32" fill="none" xmlns="http://www.w3.org/2000/svg">
<path d="M25 12.501C24.9998 10.9389 24.5931 9.40369 23.8197 8.04643C23.0464 6.68916 21.9331 5.55655 20.5893 4.75998C19.2456 3.96342 17.7176 3.53032 16.1557 3.5033C14.5938 3.47628 13.0518 3.85625 11.6813 4.60585C10.3107 5.35546 9.15891 6.44887 8.33908 7.77858C7.51925 9.10828 7.05963 10.6285 7.00542 12.1897C6.95122 13.7508 7.30429 15.2993 8.02993 16.6826C8.75556 18.066 9.82877 19.2367 11.144 20.0795C11.5536 20.3335 11.8926 20.6866 12.1296 21.1063C12.3666 21.5259 12.494 21.9986 12.5 22.4805V24.501C12.5 24.8988 12.658 25.2804 12.9393 25.5617C13.2206 25.843 13.6022 26.001 14 26.001H18C18.3978 26.001 18.7794 25.843 19.0607 25.5617C19.342 25.2804 19.5 24.8988 19.5 24.501V22.522C19.5063 22.0286 19.6363 21.5447 19.8783 21.1147C20.1203 20.6847 20.4665 20.3224 20.885 20.061C22.1483 19.2454 23.1869 18.1261 23.9058 16.8054C24.6247 15.4846 25.0009 14.0047 25 12.501Z" fill="#E39D10"/>
<path d="M13.5 29C13.5 29.3978 13.658 29.7794 13.9393 30.0607C14.2206 30.342 14.6022 30.5 15 30.5H17C17.3978 30.5 17.7794 30.342 18.0607 30.0607C18.342 29.7794 18.5 29.3978 18.5 29V26H13.5V29Z" fill="#EBEBEB"/>
<path d="M28.0965 7.2105L29.6685 6.0315L27.8685 3.6315L26.2965 4.8105C26.1383 4.92903 25.9485 4.99799 25.751 5.00867C25.5536 5.01935 25.3575 4.97128 25.1874 4.87052C25.0173 4.76977 24.8808 4.62085 24.7953 4.44259C24.7099 4.26433 24.6791 4.06473 24.707 3.869L24.9845 1.9245L22.0145 1.5L21.737 3.4445C21.7091 3.64034 21.6238 3.82351 21.4918 3.97083C21.3597 4.11815 21.187 4.22301 20.9954 4.27215C20.8038 4.32128 20.6019 4.31249 20.4153 4.24686C20.2287 4.18124 20.0657 4.06175 19.947 3.9035L18.7685 2.3315L16.3685 4.1315L17.547 5.7035C17.6655 5.86174 17.7345 6.05155 17.7452 6.24897C17.7559 6.44639 17.7078 6.64254 17.607 6.81264C17.5063 6.98274 17.3574 7.11916 17.1791 7.20466C17.0008 7.29016 16.8012 7.3209 16.6055 7.293L14.661 7.0155L14.2365 9.9855L16.1815 10.263C16.3773 10.291 16.5604 10.3764 16.7077 10.5084C16.8549 10.6405 16.9597 10.8132 17.0088 11.0048C17.0579 11.1964 17.049 11.3983 16.9834 11.5848C16.9178 11.7714 16.7983 11.9343 16.64 12.053L15.0685 13.232L16.8685 15.632L18.44 14.4535C18.5982 14.3348 18.7881 14.2657 18.9856 14.2549C19.1831 14.2442 19.3794 14.2922 19.5496 14.393C19.7198 14.4938 19.8563 14.6428 19.9418 14.8211C20.0273 14.9995 20.058 15.1992 20.03 15.395L19.75 17.339L22.72 17.7635L23 15.8185C23.028 15.6227 23.1134 15.4396 23.2454 15.2923C23.3775 15.1451 23.5502 15.0403 23.7418 14.9912C23.9334 14.9421 24.1353 14.951 24.3219 15.0166C24.5084 15.0823 24.6714 15.2018 24.79 15.36L25.969 16.9315L28.369 15.1315L27.1895 13.56C27.0708 13.4018 27.0017 13.2119 26.9909 13.0144C26.9802 12.8169 27.0282 12.6206 27.129 12.4504C27.2298 12.2802 27.3788 12.1437 27.5571 12.0582C27.7355 11.9727 27.9352 11.942 28.131 11.97L30.0755 12.248L30.5 9.278L28.5555 9C28.3598 8.97201 28.1768 8.88663 28.0296 8.75466C27.8823 8.62268 27.7776 8.45003 27.7284 8.25852C27.6793 8.06702 27.6881 7.86525 27.7536 7.67871C27.8191 7.49217 27.9384 7.32924 28.0965 7.2105ZM22.3685 13.1315C21.6763 13.1315 20.9996 12.9262 20.424 12.5416C19.8484 12.1571 19.3998 11.6104 19.1349 10.9709C18.87 10.3314 18.8007 9.62762 18.9358 8.94868C19.0708 8.26975 19.4042 7.64611 19.8936 7.15663C20.3831 6.66714 21.0068 6.3338 21.6857 6.19875C22.3646 6.0637 23.0684 6.13301 23.7079 6.39792C24.3474 6.66283 24.8941 7.11143 25.2787 7.687C25.6632 8.26258 25.8685 8.93927 25.8685 9.6315C25.8685 10.5598 25.4998 11.45 24.8434 12.1064C24.187 12.7628 23.2968 13.1315 22.3685 13.1315Z" fill="#10BDE0"/>
<path d="M11.144 20.0785C10.7066 19.7966 10.2944 19.4774 9.912 19.1245C9.79446 19.5762 9.5526 19.986 9.21388 20.3072C8.87516 20.6284 8.45316 20.8481 7.99581 20.9415C7.53846 21.0349 7.06408 20.9982 6.62655 20.8355C6.18903 20.6728 5.80589 20.3907 5.52065 20.0212C5.23541 19.6517 5.0595 19.2096 5.01289 18.7452C4.96629 18.2807 5.05087 17.8125 5.25701 17.3937C5.46316 16.9749 5.78262 16.6223 6.1791 16.3759C6.57559 16.1296 7.03321 15.9993 7.5 16C7.5765 16 7.65 16.016 7.723 16.0225C7.24903 14.9086 7.00482 13.7105 7.005 12.5H6.3685L6.023 14.1435C6.00607 14.2241 5.96949 14.2993 5.9165 14.3624C5.86351 14.4255 5.79575 14.4745 5.71926 14.505C5.64277 14.5356 5.5599 14.5468 5.47804 14.5377C5.39617 14.5285 5.31784 14.4992 5.25 14.4525L3.8685 13.5L2.3685 15L3.3185 16.3815C3.36524 16.4493 3.39449 16.5277 3.40365 16.6095C3.41282 16.6914 3.40161 16.7743 3.37104 16.8508C3.34046 16.9273 3.29146 16.995 3.22838 17.048C3.16531 17.101 3.09012 17.1376 3.0095 17.1545L1.3685 17.5V19.5L3.0115 19.8455C3.09212 19.8624 3.16731 19.899 3.23038 19.952C3.29346 20.005 3.34246 20.0727 3.37304 20.1492C3.40361 20.2257 3.41482 20.3086 3.40565 20.3905C3.39649 20.4723 3.36724 20.5507 3.3205 20.6185L2.3685 22L3.8685 23.5L5.25 22.55C5.31785 22.5031 5.39622 22.4738 5.47816 22.4646C5.56009 22.4554 5.64303 22.4665 5.71959 22.4971C5.79616 22.5277 5.86397 22.5768 5.917 22.6399C5.97002 22.703 6.00661 22.7783 6.0235 22.859L6.3685 24.5H8.3685L8.7135 22.8565C8.73039 22.7758 8.76698 22.7005 8.82 22.6374C8.87303 22.5743 8.94084 22.5252 9.01741 22.4946C9.09397 22.464 9.17691 22.4529 9.25884 22.4621C9.34078 22.4713 9.41915 22.5007 9.487 22.5475L10.8685 23.5L12.438 21.9305C12.3566 21.5511 12.2002 21.1919 11.978 20.8738C11.7558 20.5558 11.4722 20.2854 11.144 20.0785Z" fill="#C9DFFF"/>
<path d="M30.571 8.78307L28.626 8.50557C28.5281 8.49163 28.4365 8.44895 28.3628 8.38295C28.2892 8.31694 28.2368 8.23057 28.2122 8.13477C28.1876 8.03896 28.192 7.93801 28.2248 7.84471C28.2576 7.7514 28.3174 7.66992 28.3965 7.61057L29.9685 6.43157C30.0746 6.35201 30.1447 6.23356 30.1635 6.10229C30.1822 5.97101 30.1481 5.83766 30.0685 5.73158L28.2685 3.33157C28.1889 3.22549 28.0705 3.15535 27.9392 3.1366C27.8079 3.11785 27.6746 3.15201 27.5685 3.23157L25.997 4.41057C25.9179 4.47057 25.8228 4.50568 25.7237 4.51143C25.6246 4.51717 25.5261 4.49329 25.4406 4.44283C25.3551 4.39238 25.2866 4.31762 25.2438 4.22808C25.2009 4.13855 25.1857 4.03829 25.2 3.94007L25.478 1.99507C25.4873 1.93003 25.4838 1.86379 25.4675 1.80013C25.4512 1.73648 25.4225 1.67665 25.3831 1.62409C25.3437 1.57152 25.2943 1.52724 25.2377 1.49378C25.1812 1.46032 25.1186 1.43833 25.0535 1.42907L22.0855 1.00507C22.0205 0.995742 21.9543 0.999307 21.8907 1.01556C21.827 1.03182 21.7672 1.06046 21.7147 1.09983C21.6621 1.1392 21.6178 1.18855 21.5843 1.24504C21.5509 1.30153 21.5288 1.36407 21.5195 1.42907L21.2415 3.37407C21.2276 3.47199 21.1849 3.56358 21.1189 3.63724C21.0529 3.7109 20.9665 3.76333 20.8707 3.7879C20.7749 3.81247 20.674 3.80807 20.5806 3.77526C20.4873 3.74245 20.4059 3.6827 20.3465 3.60357L19.168 2.03157C19.0884 1.92549 18.97 1.85535 18.8387 1.8366C18.7074 1.81785 18.5741 1.85201 18.468 1.93157L16.9655 3.05907C16.2858 2.98682 15.6003 2.98682 14.9205 3.05907C12.7603 3.30599 10.7501 4.28647 9.22562 5.8368C7.70113 7.38713 6.75459 9.41349 6.54401 11.5776C6.53051 11.7191 6.52551 11.8596 6.51851 12.0001H6.36851C6.25342 12.0003 6.14192 12.0402 6.05283 12.1131C5.96375 12.1859 5.90253 12.2873 5.87951 12.4001L5.53401 14.0431L4.15001 13.0886C4.05375 13.0222 3.93724 12.9916 3.82076 13.0022C3.70429 13.0128 3.59521 13.0639 3.51251 13.1466L2.01251 14.6466C1.92994 14.7292 1.87892 14.8382 1.86833 14.9546C1.85773 15.071 1.88823 15.1874 1.95451 15.2836L2.90451 16.6651L1.26101 17.0106C1.14945 17.035 1.04962 17.0969 0.978122 17.186C0.906623 17.275 0.867765 17.3859 0.868013 17.5001V19.5001C0.867961 19.6148 0.907389 19.7261 0.979677 19.8153C1.05196 19.9044 1.15271 19.9659 1.26501 19.9896L2.90851 20.3351L1.95851 21.7166C1.89223 21.8128 1.86173 21.9292 1.87233 22.0456C1.88292 22.1619 1.93394 22.2709 2.01651 22.3536L3.51651 23.8536C3.59921 23.9363 3.70829 23.9874 3.82476 23.998C3.94124 24.0086 4.05774 23.978 4.15401 23.9116L5.53551 22.9591L5.88101 24.6026C5.90403 24.7153 5.96525 24.8167 6.05434 24.8896C6.14342 24.9625 6.25492 25.0024 6.37001 25.0026H8.37001C8.48477 25.0026 8.59606 24.9632 8.68519 24.8909C8.77432 24.8186 8.83587 24.7179 8.85951 24.6056L9.20501 22.9621L10.5865 23.9121C10.6827 23.9784 10.7991 24.0089 10.9155 23.9983C11.0319 23.9877 11.1408 23.9366 11.2235 23.8541L12 23.0751V24.5001C12.0011 24.8496 12.0941 25.1926 12.2696 25.4949C12.4451 25.7971 12.697 26.0479 13 26.2221V29.0001C13 29.5305 13.2107 30.0392 13.5858 30.4143C13.9609 30.7894 14.4696 31.0001 15 31.0001H17C17.5304 31.0001 18.0392 30.7894 18.4142 30.4143C18.7893 30.0392 19 29.5305 19 29.0001V26.2221C19.303 26.0479 19.5549 25.7971 19.7304 25.4949C19.9059 25.1926 19.9989 24.8496 20 24.5001V22.5211C20.0067 22.1113 20.1161 21.7097 20.3181 21.3532C20.5201 20.9966 20.8084 20.6964 21.1565 20.4801C21.5715 20.2109 21.965 19.91 22.3335 19.5801L21.6665 18.8351C21.3368 19.1306 20.9846 19.3999 20.613 19.6406C20.1244 19.9472 19.7207 20.3717 19.4389 20.875C19.157 21.3783 19.0061 21.9443 19 22.5211V24.5001C19 24.7653 18.8947 25.0196 18.7071 25.2072C18.5196 25.3947 18.2652 25.5001 18 25.5001H14C13.7348 25.5001 13.4804 25.3947 13.2929 25.2072C13.1054 25.0196 13 24.7653 13 24.5001V22.4796C12.9943 21.9138 12.846 21.3585 12.5688 20.8653C12.2915 20.372 11.8944 19.9566 11.414 19.6576C9.85958 18.6809 8.66435 17.2258 8.00814 15.5113C7.35192 13.7967 7.2702 11.9155 7.77527 10.1505C8.28035 8.38552 9.3449 6.83229 10.8088 5.72446C12.2727 4.61663 14.0567 4.01412 15.8925 4.00757C15.8851 4.02538 15.8785 4.04358 15.873 4.06207C15.8545 4.19335 15.8888 4.32662 15.9685 4.43257L17.147 6.00408C17.2077 6.08263 17.2431 6.17778 17.2484 6.2769C17.2538 6.37603 17.2289 6.47443 17.177 6.55907C17.127 6.64433 17.0528 6.71275 16.9637 6.75559C16.8746 6.79843 16.7748 6.81374 16.677 6.79957L14.732 6.52157C14.667 6.51225 14.6007 6.51583 14.5371 6.53212C14.4734 6.54841 14.4136 6.57709 14.361 6.61651C14.3085 6.65593 14.2642 6.70533 14.2307 6.76188C14.1973 6.81843 14.1753 6.88102 14.166 6.94607L13.7415 9.91557C13.7322 9.98062 13.7358 10.0469 13.7521 10.1105C13.7683 10.1742 13.797 10.234 13.8364 10.2866C13.8759 10.3391 13.9253 10.3834 13.9818 10.4169C14.0384 10.4503 14.101 10.4723 14.166 10.4816L16.111 10.7596C16.2089 10.7735 16.3005 10.8162 16.3742 10.8822C16.4478 10.9482 16.5003 11.0346 16.5248 11.1304C16.5494 11.2262 16.545 11.3271 16.5122 11.4204C16.4794 11.5137 16.4196 11.5952 16.3405 11.6546L14.769 12.8331C14.7165 12.8725 14.6722 12.9218 14.6388 12.9783C14.6053 13.0348 14.5833 13.0974 14.574 13.1624C14.5648 13.2274 14.5684 13.2936 14.5847 13.3572C14.601 13.4208 14.6296 13.4805 14.669 13.5331L16.469 15.9331C16.5486 16.0392 16.667 16.1093 16.7983 16.128C16.9296 16.1468 17.0629 16.1126 17.169 16.0331L18.741 14.8546C18.8201 14.7954 18.915 14.761 19.0136 14.7557C19.1122 14.7504 19.2102 14.7744 19.2952 14.8248C19.3802 14.8751 19.4484 14.9495 19.4912 15.0385C19.5339 15.1276 19.5494 15.2273 19.5355 15.3251L19.258 17.2701C19.2487 17.3351 19.2522 17.4013 19.2685 17.4649C19.2848 17.5285 19.3134 17.5883 19.3528 17.6409C19.3921 17.6935 19.4415 17.7378 19.498 17.7712C19.5545 17.8047 19.617 17.8268 19.682 17.8361L22.652 18.2606C22.6754 18.2636 22.6989 18.2651 22.7225 18.2651C22.8429 18.2652 22.9593 18.2219 23.0504 18.1431C23.1414 18.0643 23.2009 17.9553 23.218 17.8361L23.4955 15.8911C23.5095 15.7932 23.5521 15.7016 23.6181 15.6279C23.6841 15.5542 23.7705 15.5018 23.8663 15.4772C23.9621 15.4527 24.0631 15.4571 24.1564 15.4899C24.2497 15.5227 24.3312 15.5824 24.3905 15.6616L25.5695 17.2331C25.6491 17.3392 25.7675 17.4093 25.8988 17.428C26.0301 17.4468 26.1634 17.4126 26.2695 17.3331L28.6695 15.5331C28.7756 15.4535 28.8457 15.3351 28.8645 15.2038C28.8832 15.0725 28.8491 14.9392 28.7695 14.8331L27.591 13.2616C27.5306 13.1829 27.4954 13.0878 27.49 12.9887C27.4847 12.8897 27.5094 12.7913 27.561 12.7066C27.6099 12.6203 27.684 12.5511 27.7734 12.5082C27.8628 12.4652 27.9631 12.4507 28.061 12.4666L30.006 12.7441C30.071 12.7534 30.1372 12.7498 30.2009 12.7336C30.2645 12.7173 30.3243 12.6887 30.3768 12.6493C30.4294 12.6099 30.4737 12.5606 30.5072 12.5041C30.5407 12.4476 30.5627 12.3851 30.572 12.3201L30.996 9.35007C31.0053 9.28507 31.0018 9.21886 30.9855 9.15523C30.9693 9.09161 30.9406 9.03181 30.9013 8.97925C30.8619 8.92669 30.8125 8.8824 30.7561 8.84891C30.6996 8.81542 30.637 8.79339 30.572 8.78408L30.571 8.78307ZM7.38701 16.5001C7.84679 17.4915 8.47472 18.3959 9.24301 19.1731C9.11918 19.5173 8.90317 19.8209 8.61856 20.0507C8.33395 20.2806 7.99168 20.4278 7.6291 20.4764C7.26651 20.525 6.89755 20.473 6.56248 20.3262C6.22741 20.1794 5.9391 19.9434 5.72903 19.6439C5.51895 19.3444 5.39517 18.9929 5.3712 18.6279C5.34723 18.2629 5.424 17.8983 5.59311 17.5739C5.76223 17.2495 6.01719 16.9778 6.33019 16.7884C6.64319 16.5991 7.00219 16.4993 7.36801 16.5001H7.38701ZM17 30.0001H15C14.7348 30.0001 14.4804 29.8947 14.2929 29.7072C14.1054 29.5196 14 29.2653 14 29.0001V28.5001H18V29.0001C18 29.2653 17.8947 29.5196 17.7071 29.7072C17.5196 29.8947 17.2652 30.0001 17 30.0001ZM18 26.5001V27.5001H14V26.5001H18ZM11.8815 21.7796L10.809 22.8501L9.77051 22.1341C9.63487 22.0406 9.47824 21.9821 9.31454 21.9637C9.15084 21.9454 8.98513 21.9677 8.83216 22.0288C8.67918 22.0899 8.54367 22.1879 8.43766 22.314C8.33165 22.4401 8.25843 22.5904 8.22451 22.7516L7.96251 24.0001H6.77401L6.51201 22.7536C6.47809 22.5924 6.40487 22.4421 6.29887 22.316C6.19286 22.1899 6.05735 22.0919 5.90437 22.0308C5.75139 21.9697 5.58569 21.9474 5.42199 21.9657C5.25829 21.9841 5.10165 22.0426 4.96601 22.1361L3.92701 22.8501L3.01601 21.9411L3.73151 20.9031C3.8251 20.7675 3.88372 20.6108 3.90217 20.4471C3.92062 20.2833 3.89832 20.1176 3.83726 19.9646C3.77621 19.8115 3.67828 19.6759 3.55219 19.5699C3.4261 19.4638 3.27575 19.3905 3.11451 19.3566L1.86801 19.0941V17.9061L3.11451 17.6436C3.27531 17.6095 3.42523 17.5363 3.55099 17.4304C3.67676 17.3246 3.77449 17.1894 3.83555 17.0368C3.8966 16.8842 3.9191 16.7188 3.90104 16.5555C3.88298 16.3921 3.82493 16.2357 3.73201 16.1001L3.01601 15.0591L3.92701 14.1501L4.96651 14.8661C5.10218 14.9594 5.2588 15.0178 5.42247 15.0361C5.58614 15.0544 5.75179 15.032 5.9047 14.9708C6.05762 14.9097 6.19306 14.8117 6.29901 14.6856C6.40496 14.5595 6.47812 14.4092 6.51201 14.2481L6.59951 13.8321C6.67961 14.4082 6.81233 14.9757 6.99601 15.5276C6.48191 15.5889 5.99241 15.7822 5.57514 16.0887C5.15788 16.3952 4.82703 16.8045 4.6148 17.2767C4.40256 17.749 4.31616 18.2681 4.36399 18.7836C4.41182 19.2992 4.59226 19.7935 4.88776 20.2187C5.18326 20.6438 5.58375 20.9853 6.05029 21.2098C6.51683 21.4343 7.03353 21.5342 7.55013 21.4999C8.06674 21.4655 8.56567 21.2981 8.99839 21.0138C9.43111 20.7295 9.78289 20.3381 10.0195 19.8776C10.2925 20.1009 10.5778 20.3087 10.874 20.5001C11.3464 20.7986 11.7021 21.2503 11.8815 21.7796ZM29.65 11.6821L28.2 11.4751C27.9063 11.4331 27.6068 11.4792 27.3393 11.6075C27.0718 11.7358 26.8484 11.9406 26.6972 12.1958C26.5461 12.4511 26.474 12.7455 26.4902 13.0417C26.5064 13.338 26.61 13.6227 26.788 13.8601L27.6665 15.0316L26.0665 16.2316L25.1875 15.0606C25.0095 14.8232 24.7652 14.644 24.4853 14.5455C24.2055 14.447 23.9027 14.4337 23.6153 14.5073C23.3279 14.5809 23.0688 14.7381 22.8707 14.9589C22.6727 15.1798 22.5445 15.4544 22.5025 15.7481L22.3 17.2001L20.3205 16.9171L20.5275 15.4671C20.5696 15.1733 20.5236 14.8737 20.3953 14.6062C20.2671 14.3386 20.0623 14.115 19.807 13.9638C19.5517 13.8126 19.2573 13.7405 18.961 13.7567C18.6647 13.7728 18.3799 13.8765 18.1425 14.0546L16.971 14.9331L15.771 13.3331L16.942 12.4541C17.1794 12.2761 17.3586 12.0317 17.4571 11.7519C17.5556 11.4721 17.5689 11.1693 17.4953 10.8819C17.4217 10.5945 17.2645 10.3354 17.0437 10.1373C16.8228 9.93922 16.5482 9.81107 16.2545 9.76907L14.8045 9.56207L15.0875 7.58257L16.5375 7.78958C16.8312 7.83163 17.1309 7.78563 17.3984 7.65738C17.666 7.52913 17.8895 7.3244 18.0408 7.06909C18.192 6.81378 18.2641 6.51935 18.2479 6.22307C18.2317 5.92678 18.1281 5.64194 17.95 5.40457L17.0685 4.23207L18.6685 3.03207L19.5475 4.20357C19.7255 4.44093 19.9698 4.62018 20.2497 4.71866C20.5295 4.81714 20.8323 4.83043 21.1197 4.75684C21.4071 4.68325 21.6662 4.52609 21.8643 4.30524C22.0624 4.08439 22.1905 3.80975 22.2325 3.51607L22.4395 2.06607L24.419 2.34857L24.212 3.79857C24.1701 4.09227 24.2162 4.3918 24.3445 4.6593C24.4728 4.92679 24.6775 5.15024 24.9328 5.30138C25.1881 5.45251 25.4824 5.52456 25.7787 5.5084C26.0749 5.49223 26.3597 5.38859 26.597 5.21057L27.7685 4.33207L28.9685 5.93208L27.797 6.81107C27.5597 6.98905 27.3804 7.23341 27.2819 7.51325C27.1834 7.7931 27.1702 8.09586 27.2437 8.38326C27.3173 8.67065 27.4745 8.92977 27.6953 9.12785C27.9162 9.32593 28.1908 9.45407 28.4845 9.49607L29.9345 9.70307L29.65 11.6821Z" fill="black"/>
<path d="M22.368 5.63295C21.5769 5.63295 20.8035 5.86755 20.1457 6.30707C19.4879 6.7466 18.9752 7.37131 18.6725 8.10222C18.3697 8.83312 18.2905 9.63739 18.4449 10.4133C18.5992 11.1892 18.9802 11.902 19.5396 12.4614C20.099 13.0208 20.8117 13.4018 21.5876 13.5561C22.3636 13.7104 23.1678 13.6312 23.8987 13.3285C24.6296 13.0257 25.2544 12.513 25.6939 11.8552C26.1334 11.1974 26.368 10.4241 26.368 9.63295C26.3668 8.57245 25.945 7.55573 25.1951 6.80584C24.4452 6.05595 23.4285 5.63414 22.368 5.63295ZM22.368 12.633C21.7747 12.633 21.1946 12.457 20.7013 12.1274C20.2079 11.7977 19.8234 11.3292 19.5964 10.781C19.3693 10.2328 19.3099 9.62963 19.4256 9.04768C19.5414 8.46574 19.8271 7.93119 20.2467 7.51163C20.6662 7.09208 21.2008 6.80635 21.7827 6.6906C22.3647 6.57484 22.9679 6.63425 23.516 6.86131C24.0642 7.08838 24.5328 7.47289 24.8624 7.96624C25.1921 8.45959 25.368 9.03961 25.368 9.63295C25.3671 10.4283 25.0507 11.1908 24.4883 11.7533C23.9259 12.3157 23.1634 12.632 22.368 12.633ZM15.5 23.001H16.5V24.501H15.5V23.001ZM13.813 18.0905C12.7784 17.6863 11.8763 17.0029 11.2072 16.1163C10.538 15.2297 10.1281 14.1748 10.0231 13.069C9.91809 11.9633 10.1221 10.85 10.6124 9.85336C11.1026 8.85668 11.86 8.01565 12.8 7.42395L12.2655 6.57795C11.1692 7.26859 10.2861 8.24993 9.71458 9.41273C9.14301 10.5755 8.9054 11.8742 9.02818 13.164C9.15097 14.4539 9.62934 15.6843 10.41 16.7184C11.1907 17.7525 12.2431 18.5496 13.45 19.021C14.053 19.252 14.5718 19.6605 14.9378 20.1926C15.3038 20.7246 15.4999 21.3552 15.5 22.001H16.5C16.5008 21.1537 16.2443 20.3262 15.7645 19.6279C15.2847 18.9297 14.6042 18.3935 13.813 18.0905ZM25.5 19.501H29V20.501H25.5V19.501ZM24.68 22.8855L25.32 22.117L28.32 24.617L27.68 25.385L24.68 22.8855ZM22.5 23.501H23.5V27.001H22.5V23.501ZM1.379 9.51595L5.379 8.51595L5.621 9.48595L1.621 10.486L1.379 9.51595ZM2.2095 4.40795L2.79 3.59495L6.29 6.09495L5.7085 6.90795L2.2095 4.40795ZM6.4935 1.12445L7.4625 0.876953L8.485 4.87695L7.516 5.12445L6.4935 1.12445Z" fill="black"/>
</svg>
